<svg width="40" height="40" viewBox="0 0 40 40" fill="none" xmlns="http://www.w3.org/2000/svg">
<path d="M33.75 28.75H12.5L6.25 2.5H2.5M7.5 7.5H37.5L33.75 23.75H11.25L7.5 7.5Z" stroke="#FFFCFF" stroke-width="2.5" stroke-linecap="round" stroke-linejoin="round"/>
<path d="M31.25 36.25C32.6307 36.25 33.75 35.1307 33.75 33.75C33.75 32.3693 32.6307 31.25 31.25 31.25C29.8693 31.25 28.75 32.3693 28.75 33.75C28.75 35.1307 29.8693 36.25 31.25 36.25Z" stroke="#FFFCFF" stroke-width="2.5" stroke-linecap="round" stroke-linejoin="round"/>
<path d="M15 36.25C16.3807 36.25 17.5 35.1307 17.5 33.75C17.5 32.3693 16.3807 31.25 15 31.25C13.6193 31.25 12.5 32.3693 12.5 33.75C12.5 35.1307 13.6193 36.25 15 36.25Z" stroke="#FFFCFF" stroke-width="2.5" stroke-linecap="round" stroke-linejoin="round"/>
<path d="M24.684 18.132V19H19.938V18.132H21.926V12.14C21.8233 12.28 21.6367 12.4387 21.366 12.616C21.0953 12.7933 20.8013 12.9473 20.484 13.078C20.1667 13.1993 19.8867 13.26 19.644 13.26V12.336C19.8587 12.336 20.092 12.2753 20.344 12.154C20.6053 12.0327 20.848 11.8927 21.072 11.734C21.3053 11.566 21.5013 11.412 21.66 11.272C21.8187 11.132 21.9073 11.0433 21.926 11.006H22.906V18.132H24.684Z" fill="white"/>
</svg>
