<svg width="48" height="48" viewBox="0 0 48 48" fill="none" xmlns="http://www.w3.org/2000/svg">
<path d="M38.3531 43.9397L35.25 44.9109L32.5687 45.75H18.4866L15.75 37.0069L6.75 8.25001L15.75 5.43282L25.3594 2.42532L35.25 34.0256L38.3531 43.9397Z" fill="#379A6B"/>
<path d="M31.7746 40.4975L32.4466 42.6447L23.8575 45.333L23.1854 43.1857L21.0382 43.8577L11.1812 12.3642L13.3284 11.6922L12.6564 9.54488L21.2455 6.85669L21.9176 9.00394L24.0649 8.33185L33.9218 39.8254L31.7746 40.4975Z" fill="#44C086"/>
<path d="M15.75 2.25H35.25V45.75H15.75V2.25Z" fill="#3BA673"/>
<path d="M30 40.5V42.75H21V40.5H18.75V7.5H21V5.25H30V7.5H32.25V40.5H30Z" fill="#44C086"/>
<path d="M25.5 27.75C27.5711 27.75 29.25 26.0711 29.25 24C29.25 21.9289 27.5711 20.25 25.5 20.25C23.4289 20.25 21.75 21.9289 21.75 24C21.75 26.0711 23.4289 27.75 25.5 27.75Z" fill="#3BA673"/>
<path d="M41.25 27.75V45.75H36C34.0109 45.75 32.1032 44.9598 30.6967 43.5533C29.2902 42.1468 28.5 40.2391 28.5 38.25H28.515L23.6494 31.0495C23.2039 30.3903 23.0386 29.581 23.1898 28.7999C23.341 28.0187 23.7964 27.3297 24.4556 26.8842C25.1149 26.4388 25.9241 26.2735 26.7053 26.4247C27.4864 26.5759 28.1755 27.0312 28.6209 27.6905L33 33.75H35.25V15.75L40.897 26.3382C41.1288 26.7727 41.25 27.2576 41.25 27.75Z" fill="#F5CBAA"/>
</svg>
