<svg width="48" height="48" viewBox="0 0 48 48" fill="none" xmlns="http://www.w3.org/2000/svg">
<path d="M44.25 6.75H3.75C1.68234 6.75 0 8.43234 0 10.5V37.5C0 39.5677 1.68234 41.25 3.75 41.25H44.25C46.3177 41.25 48 39.5677 48 37.5V10.5C48 8.43234 46.3177 6.75 44.25 6.75Z" fill="#5D647F"/>
<path d="M16.5 21.75H7.5C6.67153 21.75 6 21.0785 6 20.25V14.25C6 13.4215 6.67153 12.75 7.5 12.75H16.5C17.3285 12.75 18 13.4215 18 14.25V20.25C18 21.0785 17.3285 21.75 16.5 21.75Z" fill="#FFD100"/>
<path d="M11.25 31.5H7.5C6.67153 31.5 6 30.8285 6 30V29.25C6 28.4215 6.67153 27.75 7.5 27.75H11.25C12.0785 27.75 12.75 28.4215 12.75 29.25V30C12.75 30.8285 12.0785 31.5 11.25 31.5Z" fill="#B8BAC0"/>
<path d="M21 31.5H17.25C16.4215 31.5 15.75 30.8285 15.75 30V29.25C15.75 28.4215 16.4215 27.75 17.25 27.75H21C21.8285 27.75 22.5 28.4215 22.5 29.25V30C22.5 30.8285 21.8285 31.5 21 31.5Z" fill="#B8BAC0"/>
<path d="M30.75 31.5H27C26.1715 31.5 25.5 30.8285 25.5 30V29.25C25.5 28.4215 26.1715 27.75 27 27.75H30.75C31.5785 27.75 32.25 28.4215 32.25 29.25V30C32.25 30.8285 31.5785 31.5 30.75 31.5Z" fill="#B8BAC0"/>
<path d="M40.5 31.5H36.75C35.9215 31.5 35.25 30.8285 35.25 30V29.25C35.25 28.4215 35.9215 27.75 36.75 27.75H40.5C41.3285 27.75 42 28.4215 42 29.25V30C42 30.8285 41.3285 31.5 40.5 31.5Z" fill="#B8BAC0"/>
<path d="M21.75 36H6.75C6.33544 36 6 35.6642 6 35.25C6 34.8358 6.33544 34.5 6.75 34.5H21.75C22.1646 34.5 22.5 34.8358 22.5 35.25C22.5 35.6642 22.1646 36 21.75 36Z" fill="#8A8895"/>
<path d="M31.5 36H24.75C24.3354 36 24 35.6642 24 35.25C24 34.8358 24.3354 34.5 24.75 34.5H31.5C31.9146 34.5 32.25 34.8358 32.25 35.25C32.25 35.6642 31.9146 36 31.5 36Z" fill="#8A8895"/>
<path d="M34.5 20.2502C33.676 21.1707 32.4787 21.75 31.146 21.75C28.6607 21.75 26.646 19.7353 26.646 17.25C26.646 14.7647 28.6607 12.75 31.146 12.75C32.4785 12.75 33.6757 13.3291 34.4996 14.2493" fill="#FF4F19"/>
<path d="M18 18H10.5V16.5H18V15H10.5V12.75H9V21.75H10.5V19.5H18V18Z" fill="#FF9500"/>
<path d="M37.5 21.75C39.9853 21.75 42 19.7353 42 17.25C42 14.7647 39.9853 12.75 37.5 12.75C35.0147 12.75 33 14.7647 33 17.25C33 19.7353 35.0147 21.75 37.5 21.75Z" fill="#FFD100"/>
</svg>
