<svg width="48" height="48" viewBox="0 0 48 48" fill="none" xmlns="http://www.w3.org/2000/svg">
<path d="M4.99997 7.99997H42.9999C45.7613 7.99997 47.9999 10.2385 47.9999 12.9999V35C47.9999 37.7614 45.7613 39.9999 42.9999 39.9999H4.99997C2.23856 40 0 37.7615 0 35V13C0 10.2385 2.23856 7.99997 4.99997 7.99997Z" fill="#2196F3"/>
<path d="M48 14H0V21.9999H48V14Z" fill="#455A64"/>
<path d="M15 30H7.00003C6.44775 30 6 29.5523 6 29C6 28.4477 6.44775 27.9999 7.00003 27.9999H15C15.5523 27.9999 16 28.4477 16 29C16 29.5523 15.5523 30 15 30Z" fill="#FAFAFA"/>
<path d="M21 34H7.00003C6.44775 34 6 33.5523 6 33C6 32.4477 6.44775 32 7.00003 32H21C21.5523 32 22 32.4477 22 33C22 33.5523 21.5523 34 21 34Z" fill="#FAFAFA"/>
</svg>
