<svg width="524" height="390" viewBox="0 0 524 390" fill="none" xmlns="http://www.w3.org/2000/svg">
<g clip-path="url(#clip0_212_367)">
<path d="M119.017 10.1348C121.579 10.1348 123.657 7.86602 123.657 5.06738C123.657 2.26874 121.579 0 119.017 0C116.454 0 114.376 2.26874 114.376 5.06738C114.376 7.86602 116.454 10.1348 119.017 10.1348Z" fill="#E6E6E6"/>
<path d="M142.505 10.1348C145.068 10.1348 147.145 7.86602 147.145 5.06738C147.145 2.26874 145.068 0 142.505 0C139.942 0 137.865 2.26874 137.865 5.06738C137.865 7.86602 139.942 10.1348 142.505 10.1348Z" fill="#E6E6E6"/>
<path d="M165.993 10.1348C168.556 10.1348 170.634 7.86602 170.634 5.06738C170.634 2.26874 168.556 0 165.993 0C163.431 0 161.353 2.26874 161.353 5.06738C161.353 7.86602 163.431 10.1348 165.993 10.1348Z" fill="#E6E6E6"/>
<path d="M189.482 10.1348C192.045 10.1348 194.122 7.86602 194.122 5.06738C194.122 2.26874 192.045 0 189.482 0C186.919 0 184.842 2.26874 184.842 5.06738C184.842 7.86602 186.919 10.1348 189.482 10.1348Z" fill="#E6E6E6"/>
<path d="M212.97 10.1348C215.533 10.1348 217.61 7.86602 217.61 5.06738C217.61 2.26874 215.533 0 212.97 0C210.408 0 208.33 2.26874 208.33 5.06738C208.33 7.86602 210.408 10.1348 212.97 10.1348Z" fill="#E6E6E6"/>
<path d="M119.017 36.1077C121.579 36.1077 123.657 33.8389 123.657 31.0403C123.657 28.2416 121.579 25.9729 119.017 25.9729C116.454 25.9729 114.376 28.2416 114.376 31.0403C114.376 33.8389 116.454 36.1077 119.017 36.1077Z" fill="#E6E6E6"/>
<path d="M142.505 36.1077C145.068 36.1077 147.145 33.8389 147.145 31.0403C147.145 28.2416 145.068 25.9729 142.505 25.9729C139.942 25.9729 137.865 28.2416 137.865 31.0403C137.865 33.8389 139.942 36.1077 142.505 36.1077Z" fill="#E6E6E6"/>
<path d="M165.993 36.1077C168.556 36.1077 170.634 33.8389 170.634 31.0403C170.634 28.2416 168.556 25.9729 165.993 25.9729C163.431 25.9729 161.353 28.2416 161.353 31.0403C161.353 33.8389 163.431 36.1077 165.993 36.1077Z" fill="#E6E6E6"/>
<path d="M189.482 36.1077C192.045 36.1077 194.122 33.8389 194.122 31.0403C194.122 28.2416 192.045 25.9729 189.482 25.9729C186.919 25.9729 184.842 28.2416 184.842 31.0403C184.842 33.8389 186.919 36.1077 189.482 36.1077Z" fill="#1A57B0"/>
<path d="M212.97 36.1077C215.533 36.1077 217.61 33.8389 217.61 31.0403C217.61 28.2416 215.533 25.9729 212.97 25.9729C210.408 25.9729 208.33 28.2416 208.33 31.0403C208.33 33.8389 210.408 36.1077 212.97 36.1077Z" fill="#E6E6E6"/>
<path d="M259.947 36.1077C262.51 36.1077 264.587 33.8389 264.587 31.0403C264.587 28.2416 262.51 25.9729 259.947 25.9729C257.384 25.9729 255.307 28.2416 255.307 31.0403C255.307 33.8389 257.384 36.1077 259.947 36.1077Z" fill="#E6E6E6"/>
<path d="M119.017 62.0807C121.579 62.0807 123.657 59.8119 123.657 57.0133C123.657 54.2147 121.579 51.9459 119.017 51.9459C116.454 51.9459 114.376 54.2147 114.376 57.0133C114.376 59.8119 116.454 62.0807 119.017 62.0807Z" fill="#E6E6E6"/>
<path d="M142.505 62.0807C145.068 62.0807 147.145 59.8119 147.145 57.0133C147.145 54.2147 145.068 51.9459 142.505 51.9459C139.942 51.9459 137.865 54.2147 137.865 57.0133C137.865 59.8119 139.942 62.0807 142.505 62.0807Z" fill="#E6E6E6"/>
<path d="M165.993 62.0807C168.556 62.0807 170.634 59.8119 170.634 57.0133C170.634 54.2147 168.556 51.9459 165.993 51.9459C163.431 51.9459 161.353 54.2147 161.353 57.0133C161.353 59.8119 163.431 62.0807 165.993 62.0807Z" fill="#E6E6E6"/>
<path d="M189.482 62.0807C192.045 62.0807 194.122 59.8119 194.122 57.0133C194.122 54.2147 192.045 51.9459 189.482 51.9459C186.919 51.9459 184.842 54.2147 184.842 57.0133C184.842 59.8119 186.919 62.0807 189.482 62.0807Z" fill="#E6E6E6"/>
<path d="M212.97 62.0807C215.533 62.0807 217.61 59.8119 217.61 57.0133C217.61 54.2147 215.533 51.9459 212.97 51.9459C210.408 51.9459 208.33 54.2147 208.33 57.0133C208.33 59.8119 210.408 62.0807 212.97 62.0807Z" fill="#E6E6E6"/>
<path d="M119.017 88.0536C121.579 88.0536 123.657 85.7848 123.657 82.9862C123.657 80.1876 121.579 77.9188 119.017 77.9188C116.454 77.9188 114.376 80.1876 114.376 82.9862C114.376 85.7848 116.454 88.0536 119.017 88.0536Z" fill="#E6E6E6"/>
<path d="M142.505 88.0536C145.068 88.0536 147.145 85.7848 147.145 82.9862C147.145 80.1876 145.068 77.9188 142.505 77.9188C139.942 77.9188 137.865 80.1876 137.865 82.9862C137.865 85.7848 139.942 88.0536 142.505 88.0536Z" fill="#E6E6E6"/>
<path d="M165.993 88.0536C168.556 88.0536 170.634 85.7848 170.634 82.9862C170.634 80.1876 168.556 77.9188 165.993 77.9188C163.431 77.9188 161.353 80.1876 161.353 82.9862C161.353 85.7848 163.431 88.0536 165.993 88.0536Z" fill="#E6E6E6"/>
<path d="M189.482 88.0536C192.045 88.0536 194.122 85.7848 194.122 82.9862C194.122 80.1876 192.045 77.9188 189.482 77.9188C186.919 77.9188 184.842 80.1876 184.842 82.9862C184.842 85.7848 186.919 88.0536 189.482 88.0536Z" fill="#E6E6E6"/>
<path d="M212.97 88.0536C215.533 88.0536 217.61 85.7848 217.61 82.9862C217.61 80.1876 215.533 77.9188 212.97 77.9188C210.408 77.9188 208.33 80.1876 208.33 82.9862C208.33 85.7848 210.408 88.0536 212.97 88.0536Z" fill="#E6E6E6"/>
<path d="M236.459 88.0536C239.021 88.0536 241.099 85.7848 241.099 82.9862C241.099 80.1876 239.021 77.9188 236.459 77.9188C233.896 77.9188 231.818 80.1876 231.818 82.9862C231.818 85.7848 233.896 88.0536 236.459 88.0536Z" fill="#E6E6E6"/>
<path d="M259.947 88.0536C262.51 88.0536 264.587 85.7848 264.587 82.9862C264.587 80.1876 262.51 77.9188 259.947 77.9188C257.384 77.9188 255.307 80.1876 255.307 82.9862C255.307 85.7848 257.384 88.0536 259.947 88.0536Z" fill="#E6E6E6"/>
<path d="M283.436 88.0536C285.998 88.0536 288.076 85.7848 288.076 82.9862C288.076 80.1876 285.998 77.9188 283.436 77.9188C280.873 77.9188 278.795 80.1876 278.795 82.9862C278.795 85.7848 280.873 88.0536 283.436 88.0536Z" fill="#E6E6E6"/>
<path d="M306.924 88.0536C309.487 88.0536 311.564 85.7848 311.564 82.9862C311.564 80.1876 309.487 77.9188 306.924 77.9188C304.361 77.9188 302.284 80.1876 302.284 82.9862C302.284 85.7848 304.361 88.0536 306.924 88.0536Z" fill="#E6E6E6"/>
<path d="M330.412 88.0536C332.975 88.0536 335.053 85.7848 335.053 82.9862C335.053 80.1876 332.975 77.9188 330.412 77.9188C327.85 77.9188 325.772 80.1876 325.772 82.9862C325.772 85.7848 327.85 88.0536 330.412 88.0536Z" fill="#E6E6E6"/>
<path d="M212.97 114.027C215.533 114.027 217.61 111.758 217.61 108.959C217.61 106.161 215.533 103.892 212.97 103.892C210.408 103.892 208.33 106.161 208.33 108.959C208.33 111.758 210.408 114.027 212.97 114.027Z" fill="#E6E6E6"/>
<path d="M236.459 114.027C239.021 114.027 241.099 111.758 241.099 108.959C241.099 106.161 239.021 103.892 236.459 103.892C233.896 103.892 231.818 106.161 231.818 108.959C231.818 111.758 233.896 114.027 236.459 114.027Z" fill="#1A57B0"/>
<path d="M259.947 114.027C262.51 114.027 264.587 111.758 264.587 108.959C264.587 106.161 262.51 103.892 259.947 103.892C257.384 103.892 255.307 106.161 255.307 108.959C255.307 111.758 257.384 114.027 259.947 114.027Z" fill="#E6E6E6"/>
<path d="M283.436 114.027C285.998 114.027 288.076 111.758 288.076 108.959C288.076 106.161 285.998 103.892 283.436 103.892C280.873 103.892 278.795 106.161 278.795 108.959C278.795 111.758 280.873 114.027 283.436 114.027Z" fill="#E6E6E6"/>
<path d="M306.924 114.027C309.487 114.027 311.564 111.758 311.564 108.959C311.564 106.161 309.487 103.892 306.924 103.892C304.361 103.892 302.284 106.161 302.284 108.959C302.284 111.758 304.361 114.027 306.924 114.027Z" fill="#E6E6E6"/>
<path d="M330.412 114.027C332.975 114.027 335.053 111.758 335.053 108.959C335.053 106.161 332.975 103.892 330.412 103.892C327.85 103.892 325.772 106.161 325.772 108.959C325.772 111.758 327.85 114.027 330.412 114.027Z" fill="#E6E6E6"/>
<path d="M212.97 139.999C215.533 139.999 217.61 137.731 217.61 134.932C217.61 132.133 215.533 129.865 212.97 129.865C210.408 129.865 208.33 132.133 208.33 134.932C208.33 137.731 210.408 139.999 212.97 139.999Z" fill="#E6E6E6"/>
<path d="M236.459 139.999C239.021 139.999 241.099 137.731 241.099 134.932C241.099 132.133 239.021 129.865 236.459 129.865C233.896 129.865 231.818 132.133 231.818 134.932C231.818 137.731 233.896 139.999 236.459 139.999Z" fill="#E6E6E6"/>
<path d="M259.947 139.999C262.51 139.999 264.587 137.731 264.587 134.932C264.587 132.133 262.51 129.865 259.947 129.865C257.384 129.865 255.307 132.133 255.307 134.932C255.307 137.731 257.384 139.999 259.947 139.999Z" fill="#E6E6E6"/>
<path d="M283.436 139.999C285.998 139.999 288.076 137.731 288.076 134.932C288.076 132.133 285.998 129.865 283.436 129.865C280.873 129.865 278.795 132.133 278.795 134.932C278.795 137.731 280.873 139.999 283.436 139.999Z" fill="#E6E6E6"/>
<path d="M306.924 139.999C309.487 139.999 311.564 137.731 311.564 134.932C311.564 132.133 309.487 129.865 306.924 129.865C304.361 129.865 302.284 132.133 302.284 134.932C302.284 137.731 304.361 139.999 306.924 139.999Z" fill="#1A57B0"/>
<path d="M330.412 139.999C332.975 139.999 335.053 137.731 335.053 134.932C335.053 132.133 332.975 129.865 330.412 129.865C327.85 129.865 325.772 132.133 325.772 134.932C325.772 137.731 327.85 139.999 330.412 139.999Z" fill="#E6E6E6"/>
<path d="M212.97 165.972C215.533 165.972 217.61 163.704 217.61 160.905C217.61 158.106 215.533 155.838 212.97 155.838C210.408 155.838 208.33 158.106 208.33 160.905C208.33 163.704 210.408 165.972 212.97 165.972Z" fill="#E6E6E6"/>
<path d="M236.459 165.972C239.021 165.972 241.099 163.704 241.099 160.905C241.099 158.106 239.021 155.838 236.459 155.838C233.896 155.838 231.818 158.106 231.818 160.905C231.818 163.704 233.896 165.972 236.459 165.972Z" fill="#E6E6E6"/>
<path d="M259.947 165.972C262.51 165.972 264.587 163.704 264.587 160.905C264.587 158.106 262.51 155.838 259.947 155.838C257.384 155.838 255.307 158.106 255.307 160.905C255.307 163.704 257.384 165.972 259.947 165.972Z" fill="#E6E6E6"/>
<path d="M283.436 165.972C285.998 165.972 288.076 163.704 288.076 160.905C288.076 158.106 285.998 155.838 283.436 155.838C280.873 155.838 278.795 158.106 278.795 160.905C278.795 163.704 280.873 165.972 283.436 165.972Z" fill="#E6E6E6"/>
<path d="M306.924 165.972C309.487 165.972 311.564 163.704 311.564 160.905C311.564 158.106 309.487 155.838 306.924 155.838C304.361 155.838 302.284 158.106 302.284 160.905C302.284 163.704 304.361 165.972 306.924 165.972Z" fill="#E6E6E6"/>
<path d="M330.412 165.972C332.975 165.972 335.053 163.704 335.053 160.905C335.053 158.106 332.975 155.838 330.412 155.838C327.85 155.838 325.772 158.106 325.772 160.905C325.772 163.704 327.85 165.972 330.412 165.972Z" fill="#E6E6E6"/>
<path d="M119.017 191.945C121.579 191.945 123.657 189.677 123.657 186.878C123.657 184.079 121.579 181.811 119.017 181.811C116.454 181.811 114.376 184.079 114.376 186.878C114.376 189.677 116.454 191.945 119.017 191.945Z" fill="#E6E6E6"/>
<path d="M142.505 191.945C145.068 191.945 147.145 189.677 147.145 186.878C147.145 184.079 145.068 181.811 142.505 181.811C139.942 181.811 137.865 184.079 137.865 186.878C137.865 189.677 139.942 191.945 142.505 191.945Z" fill="#E6E6E6"/>
<path d="M165.993 191.945C168.556 191.945 170.634 189.677 170.634 186.878C170.634 184.079 168.556 181.811 165.993 181.811C163.431 181.811 161.353 184.079 161.353 186.878C161.353 189.677 163.431 191.945 165.993 191.945Z" fill="#E6E6E6"/>
<path d="M189.482 191.945C192.045 191.945 194.122 189.677 194.122 186.878C194.122 184.079 192.045 181.811 189.482 181.811C186.919 181.811 184.842 184.079 184.842 186.878C184.842 189.677 186.919 191.945 189.482 191.945Z" fill="#E6E6E6"/>
<path d="M212.97 191.945C215.533 191.945 217.61 189.677 217.61 186.878C217.61 184.079 215.533 181.811 212.97 181.811C210.408 181.811 208.33 184.079 208.33 186.878C208.33 189.677 210.408 191.945 212.97 191.945Z" fill="#E6E6E6"/>
<path d="M236.459 191.945C239.021 191.945 241.099 189.677 241.099 186.878C241.099 184.079 239.021 181.811 236.459 181.811C233.896 181.811 231.818 184.079 231.818 186.878C231.818 189.677 233.896 191.945 236.459 191.945Z" fill="#E6E6E6"/>
<path d="M259.947 191.945C262.51 191.945 264.587 189.677 264.587 186.878C264.587 184.079 262.51 181.811 259.947 181.811C257.384 181.811 255.307 184.079 255.307 186.878C255.307 189.677 257.384 191.945 259.947 191.945Z" fill="#E6E6E6"/>
<path d="M283.436 191.945C285.998 191.945 288.076 189.677 288.076 186.878C288.076 184.079 285.998 181.811 283.436 181.811C280.873 181.811 278.795 184.079 278.795 186.878C278.795 189.677 280.873 191.945 283.436 191.945Z" fill="#E6E6E6"/>
<path d="M306.924 191.945C309.487 191.945 311.564 189.677 311.564 186.878C311.564 184.079 309.487 181.811 306.924 181.811C304.361 181.811 302.284 184.079 302.284 186.878C302.284 189.677 304.361 191.945 306.924 191.945Z" fill="#E6E6E6"/>
<path d="M330.412 191.945C332.975 191.945 335.053 189.677 335.053 186.878C335.053 184.079 332.975 181.811 330.412 181.811C327.85 181.811 325.772 184.079 325.772 186.878C325.772 189.677 327.85 191.945 330.412 191.945Z" fill="#E6E6E6"/>
<path d="M119.014 217.918C121.577 217.918 123.654 215.649 123.654 212.85C123.654 210.052 121.577 207.783 119.014 207.783C116.451 207.783 114.374 210.052 114.374 212.85C114.374 215.649 116.451 217.918 119.014 217.918Z" fill="#E6E6E6"/>
<path d="M142.505 217.918C145.068 217.918 147.145 215.65 147.145 212.851C147.145 210.052 145.068 207.784 142.505 207.784C139.942 207.784 137.865 210.052 137.865 212.851C137.865 215.65 139.942 217.918 142.505 217.918Z" fill="#E6E6E6"/>
<path d="M119.014 243.89C121.577 243.89 123.654 241.622 123.654 238.823C123.654 236.024 121.577 233.756 119.014 233.756C116.451 233.756 114.374 236.024 114.374 238.823C114.374 241.622 116.451 243.89 119.014 243.89Z" fill="#E6E6E6"/>
<path d="M142.505 243.891C145.068 243.891 147.145 241.623 147.145 238.824C147.145 236.025 145.068 233.757 142.505 233.757C139.942 233.757 137.865 236.025 137.865 238.824C137.865 241.623 139.942 243.891 142.505 243.891Z" fill="#E6E6E6"/>
<path d="M189.482 243.891C192.045 243.891 194.122 241.623 194.122 238.824C194.122 236.025 192.045 233.757 189.482 233.757C186.919 233.757 184.842 236.025 184.842 238.824C184.842 241.623 186.919 243.891 189.482 243.891Z" fill="#E6E6E6"/>
<path d="M423.607 59.785H239.726C238.823 59.7838 237.958 59.3916 237.319 58.6945C236.681 57.9974 236.322 57.0522 236.321 56.0663V6.25369C236.322 5.26778 236.681 4.32258 237.319 3.62544C237.958 2.92829 238.823 2.53613 239.726 2.53497H423.607C424.51 2.53613 425.375 2.92829 426.014 3.62544C426.652 4.32258 427.011 5.26778 427.012 6.25369V56.0663C427.011 57.0522 426.652 57.9974 426.014 58.6945C425.375 59.3917 424.51 59.7838 423.607 59.785ZM239.726 4.02246C239.184 4.0231 238.665 4.25839 238.282 4.67668C237.899 5.09498 237.683 5.66213 237.683 6.25369V56.0663C237.683 56.6578 237.899 57.225 238.282 57.6433C238.665 58.0616 239.184 58.2969 239.726 58.2975H423.607C424.149 58.2969 424.668 58.0616 425.051 57.6433C425.434 57.225 425.65 56.6578 425.65 56.0663V6.25369C425.65 5.66213 425.434 5.09498 425.051 4.67668C424.668 4.25839 424.149 4.0231 423.607 4.02246H239.726Z" fill="#E6E6E6"/>
<path d="M263.562 46.7783C271.461 46.7783 277.864 39.7857 277.864 31.1597C277.864 22.5338 271.461 15.5411 263.562 15.5411C255.664 15.5411 249.261 22.5338 249.261 31.1597C249.261 39.7857 255.664 46.7783 263.562 46.7783Z" fill="#1A57B0"/>
<path d="M296.593 20.7473C295.961 20.7473 295.354 21.0216 294.907 21.5097C294.46 21.9979 294.209 22.66 294.209 23.3504C294.209 24.0408 294.46 24.7029 294.907 25.1911C295.354 25.6793 295.961 25.9535 296.593 25.9535H359.93C360.562 25.9535 361.168 25.6793 361.615 25.1911C362.062 24.7029 362.313 24.0408 362.313 23.3504C362.313 22.66 362.062 21.9979 361.615 21.5097C361.168 21.0216 360.562 20.7473 359.93 20.7473H296.593Z" fill="#E6E6E6"/>
<path d="M296.593 36.366C295.961 36.366 295.354 36.6402 294.907 37.1284C294.46 37.6166 294.209 38.2787 294.209 38.9691C294.209 39.6595 294.46 40.3216 294.907 40.8097C295.354 41.2979 295.961 41.5722 296.593 41.5722H408.964C409.597 41.5722 410.203 41.2979 410.65 40.8097C411.097 40.3216 411.348 39.6595 411.348 38.9691C411.348 38.2787 411.097 37.6166 410.65 37.1284C410.203 36.6402 409.597 36.366 408.964 36.366H296.593Z" fill="#E6E6E6"/>
<path d="M187.286 160.934H3.4052C2.50241 160.933 1.6369 160.541 0.998532 159.844C0.360162 159.146 0.00105801 158.201 0 157.215V107.403C0.00105801 106.417 0.360162 105.472 0.998532 104.774C1.6369 104.077 2.50241 103.685 3.4052 103.684H187.286C188.189 103.685 189.055 104.077 189.693 104.774C190.331 105.472 190.691 106.417 190.692 107.403V157.215C190.69 158.201 190.331 159.146 189.693 159.844C189.055 160.541 188.189 160.933 187.286 160.934ZM3.4052 105.172C2.86351 105.172 2.34418 105.407 1.96115 105.826C1.57812 106.244 1.36267 106.811 1.36208 107.403V157.215C1.36267 157.807 1.57812 158.374 1.96115 158.792C2.34418 159.211 2.86351 159.446 3.4052 159.447H187.286C187.828 159.446 188.347 159.211 188.73 158.792C189.113 158.374 189.329 157.807 189.329 157.215V107.403C189.329 106.811 189.113 106.244 188.73 105.826C188.347 105.407 187.828 105.172 187.286 105.172H3.4052Z" fill="#E6E6E6"/>
<path d="M27.2417 147.927C35.1403 147.927 41.5435 140.935 41.5435 132.309C41.5435 123.683 35.1403 116.69 27.2417 116.69C19.343 116.69 12.9398 123.683 12.9398 132.309C12.9398 140.935 19.343 147.927 27.2417 147.927Z" fill="#1A57B0"/>
<path d="M60.2721 121.896C59.6399 121.896 59.0336 122.171 58.5866 122.659C58.1396 123.147 57.8884 123.809 57.8884 124.499C57.8884 125.19 58.1396 125.852 58.5866 126.34C59.0336 126.828 59.6399 127.103 60.2721 127.103H126.333C126.965 127.103 127.571 126.828 128.018 126.34C128.465 125.852 128.717 125.19 128.717 124.499C128.717 123.809 128.465 123.147 128.018 122.659C127.571 122.171 126.965 121.896 126.333 121.896H60.2721Z" fill="#E6E6E6"/>
<path d="M60.2721 137.515C59.6399 137.515 59.0336 137.789 58.5866 138.277C58.1396 138.766 57.8884 139.428 57.8884 140.118C57.8884 140.808 58.1396 141.471 58.5866 141.959C59.0336 142.447 59.6399 142.721 60.2721 142.721H172.644C173.276 142.721 173.882 142.447 174.329 141.959C174.776 141.471 175.027 140.808 175.027 140.118C175.027 139.428 174.776 138.766 174.329 138.277C173.882 137.789 173.276 137.515 172.644 137.515H60.2721Z" fill="#E6E6E6"/>
<path d="M353.46 270.264H169.579C168.676 270.263 167.811 269.871 167.172 269.174C166.534 268.477 166.175 267.531 166.174 266.545V216.733C166.175 215.747 166.534 214.802 167.172 214.105C167.811 213.407 168.676 213.015 169.579 213.014H353.46C354.363 213.015 355.228 213.407 355.867 214.105C356.505 214.802 356.864 215.747 356.865 216.733V266.545C356.864 267.531 356.505 268.477 355.867 269.174C355.228 269.871 354.363 270.263 353.46 270.264ZM169.579 214.502C169.037 214.502 168.518 214.738 168.135 215.156C167.752 215.574 167.536 216.141 167.536 216.733V266.545C167.536 267.137 167.752 267.704 168.135 268.122C168.518 268.541 169.037 268.776 169.579 268.777H353.46C354.002 268.776 354.521 268.541 354.904 268.122C355.287 267.704 355.503 267.137 355.503 266.545V216.733C355.503 216.141 355.287 215.574 354.904 215.156C354.521 214.738 354.002 214.502 353.46 214.502H169.579Z" fill="#3F3D56"/>
<path d="M193.415 257.258C201.314 257.258 207.717 250.265 207.717 241.639C207.717 233.013 201.314 226.02 193.415 226.02C185.517 226.02 179.114 233.013 179.114 241.639C179.114 250.265 185.517 257.258 193.415 257.258Z" fill="#1A57B0"/>
<path d="M226.446 231.227C225.814 231.227 225.207 231.501 224.76 231.989C224.313 232.477 224.062 233.139 224.062 233.83C224.062 234.52 224.313 235.182 224.76 235.67C225.207 236.159 225.814 236.433 226.446 236.433H287.058C287.691 236.433 288.297 236.159 288.744 235.67C289.191 235.182 289.442 234.52 289.442 233.83C289.442 233.139 289.191 232.477 288.744 231.989C288.297 231.501 287.691 231.227 287.058 231.227H226.446Z" fill="#E6E6E6"/>
<path d="M226.446 246.845C225.814 246.845 225.207 247.119 224.76 247.608C224.313 248.096 224.062 248.758 224.062 249.448C224.062 250.139 224.313 250.801 224.76 251.289C225.207 251.777 225.814 252.051 226.446 252.051H338.817C339.45 252.051 340.056 251.777 340.503 251.289C340.95 250.801 341.201 250.139 341.201 249.448C341.201 248.758 340.95 248.096 340.503 247.608C340.056 247.119 339.45 246.845 338.817 246.845H226.446Z" fill="#E6E6E6"/>
<path d="M452.38 257.631C444.395 283.794 411.726 256.045 411.726 256.045L420.438 156.944C433.505 145.844 447.299 155.358 447.299 155.358L452.38 257.631Z" fill="#E6E6E6"/>
<path d="M450.665 345.437L461.797 345.565L459.016 380.607L450.667 380.608L450.665 345.437Z" fill="#FFB8B8"/>
<path d="M448.537 377.63H464.98C467.758 377.633 470.421 378.84 472.386 380.985C474.351 383.131 475.456 386.039 475.459 389.074V389.445H448.537V377.63Z" fill="#2F2E41"/>
<path d="M420.488 345.437L408.166 345.437L412.138 380.607L420.487 380.607L420.488 345.437Z" fill="#FFB8B8"/>
<path d="M395.694 389.445V389.073C395.694 386.038 396.798 383.127 398.764 380.981C400.729 378.835 403.394 377.63 406.174 377.63L422.617 377.631L422.616 389.447L395.694 389.445Z" fill="#2F2E41"/>
<path d="M449.914 374.537L435.331 281.701L421.819 373.34L408.13 374.171L404.479 251.389L404.755 251.322C407.018 250.769 460.284 237.992 469.017 256.27L469.061 256.362L461.773 374.954L449.914 374.537Z" fill="#2F2E41"/>
<path d="M434.459 145.33C443.697 145.33 451.186 137.152 451.186 127.063C451.186 116.974 443.697 108.796 434.459 108.796C425.22 108.796 417.731 116.974 417.731 127.063C417.731 137.152 425.22 145.33 434.459 145.33Z" fill="#FFB8B8"/>
<path d="M448.511 265.46C446.55 264.867 445.137 262.408 444.064 257.721C443.88 256.913 426.513 176.124 441.199 161.487L444.585 151.217L449.218 154.59C450.857 154.607 467.62 155.071 469.052 166.805C470.455 178.291 474.273 255.246 470.435 260.032C470.36 260.138 470.265 260.224 470.155 260.284C470.046 260.344 469.926 260.378 469.804 260.381C465.915 260.381 464.734 255.669 464.457 254.167C463.532 254.585 460.778 256.122 456.251 261.065C453.447 264.127 451.249 265.595 449.432 265.595C449.121 265.596 448.811 265.55 448.511 265.46Z" fill="#2F2E41"/>
<path d="M412.211 261.065C407.683 256.12 404.929 254.584 404.006 254.167C403.728 255.669 402.548 260.381 398.658 260.381C398.536 260.378 398.416 260.344 398.307 260.284C398.198 260.224 398.102 260.138 398.027 260.032C394.19 255.246 398.007 178.291 399.41 166.805C400.842 155.071 417.605 154.607 419.245 154.591L423.878 151.218L427.263 161.487C441.948 176.123 424.583 256.913 424.398 257.721C423.325 262.408 421.912 264.867 419.951 265.46C419.651 265.551 419.341 265.596 419.03 265.595C417.213 265.595 415.015 264.127 412.211 261.065Z" fill="#2F2E41"/>
<path d="M448.268 137.497C451.098 135.274 453.241 132.163 454.412 128.578C455.583 124.993 455.727 121.103 454.825 117.426C453.922 113.749 452.016 110.46 449.36 107.995C446.703 105.53 443.423 104.006 439.954 103.627C438.415 103.459 436.756 103.484 435.479 102.529C434.345 101.681 433.734 100.209 432.692 99.2301C432.03 98.6707 431.269 98.2667 430.458 98.0432C429.646 97.8198 428.801 97.7818 427.975 97.9315C426.327 98.2419 424.729 98.8151 423.233 99.6329C419.524 101.439 415.582 103.661 413.894 107.695C412.432 111.189 413.077 115.497 415.147 118.604C417.323 121.678 420.495 123.724 424.011 124.32C427.506 124.89 431.075 124.539 434.421 123.296C436.629 122.537 438.808 121.504 441.121 121.419C442.926 121.353 444.709 121.875 446.242 122.919C447.775 123.963 448.989 125.48 449.73 127.28C450.47 129.079 450.704 131.078 450.402 133.023C450.099 134.968 449.274 136.77 448.03 138.201" fill="#2F2E41"/>
<path d="M357.097 246.165C358.063 246.141 359.015 245.909 359.899 245.482C360.782 245.056 361.581 244.444 362.248 243.681C362.915 242.918 363.437 242.019 363.786 241.035C364.135 240.052 364.303 239.003 364.281 237.948L374.036 219.974L366.499 212.428L356.223 230.137C354.327 230.336 352.576 231.331 351.338 232.911C350.099 234.492 349.471 236.535 349.584 238.611C349.697 240.688 350.544 242.635 351.945 244.044C353.346 245.453 355.193 246.213 357.097 246.165Z" fill="#FFB8B8"/>
<path d="M470.268 265.855C471.077 265.279 471.774 264.535 472.32 263.664C472.866 262.794 473.249 261.815 473.448 260.782C473.647 259.75 473.658 258.685 473.481 257.648C473.303 256.611 472.94 255.623 472.412 254.739L472.039 233.85L461.993 231.769L461.797 252.732C460.281 253.992 459.271 255.844 458.981 257.9C458.69 259.956 459.141 262.054 460.238 263.754C461.336 265.454 462.994 266.623 464.865 267.015C466.735 267.407 468.672 266.991 470.268 265.855Z" fill="#FFB8B8"/>
<path d="M360.065 217.265L359.951 217.067L360.064 216.87C374.695 191.212 405.407 159.16 405.716 158.839L405.813 158.738L409.606 158.696L413.706 169.852C412.43 172.534 378.023 224.971 373.479 228.449C373.118 228.722 372.707 228.909 372.275 228.998C371.843 229.087 371.398 229.076 370.97 228.965C370.213 228.774 369.493 228.439 368.842 227.975C364.65 225.139 360.28 217.636 360.065 217.265Z" fill="#2F2E41"/>
<path d="M460.082 246.544C459.674 246.392 459.3 246.149 458.982 245.831C458.665 245.513 458.412 245.126 458.238 244.696C456.048 239.114 465.436 168.609 465.837 165.611L465.913 165.044L469.087 167.24L469.118 167.39C469.212 167.84 478.457 212.756 475.951 242.601L475.933 242.815L475.755 242.905C475.373 243.098 467.672 246.96 462.54 246.96C461.704 246.984 460.871 246.843 460.082 246.544Z" fill="#2F2E41"/>
<path d="M523.319 390H342.162C341.982 390 341.808 389.922 341.681 389.782C341.553 389.643 341.481 389.453 341.481 389.256C341.481 389.059 341.553 388.87 341.681 388.73C341.808 388.591 341.982 388.512 342.162 388.512H523.319C523.5 388.512 523.673 388.591 523.801 388.73C523.928 388.87 524 389.059 524 389.256C524 389.453 523.928 389.643 523.801 389.782C523.673 389.922 523.5 390 523.319 390Z" fill="#3F3D56"/>
</g>
<defs>
<clipPath id="clip0_212_367">
<rect width="524" height="390" fill="white"/>
</clipPath>
</defs>
</svg>
