<svg width="263" height="50" viewBox="0 0 263 50" fill="none" xmlns="http://www.w3.org/2000/svg">
<path d="M4.50589 3.44676C3.37942 8.77366 3.37942 8.77366 8.2608 12.3772C12.5163 15.6673 13.017 15.6673 15.1448 13.1605C16.5216 11.7505 17.5229 10.027 17.5229 9.55703C17.5229 8.61699 6.75883 -6.19888e-05 5.75753 -6.19888e-05C5.5072 -6.19888e-05 5.00655 1.56667 4.50589 3.44676Z" fill="#55C1FF"/>
<path d="M43.0562 7.67656C37.549 11.9067 35.5464 19.7404 38.0496 27.1041C39.0509 30.0809 41.0535 33.0577 42.5555 33.6844C47.0614 35.5645 54.0705 34.9378 55.197 32.5877C57.3248 28.5141 56.3235 27.2608 51.9428 27.8874C46.5607 28.6708 43.8071 26.164 43.8071 20.3671C43.8071 14.1002 47.8124 10.34 53.1944 11.4367C57.3248 12.2201 57.7003 12.0634 57.3248 8.92994C56.8241 4.07306 48.5633 3.44637 43.0562 7.67656Z" fill="#1A57B0"/>
<path d="M61.9559 6.58012C61.4552 8.77355 58.8268 30.2378 58.8268 32.7446C58.8268 33.6846 60.2036 34.468 61.8307 34.468C64.2088 34.468 64.9598 33.528 65.3353 30.2378C65.8359 24.2842 68.5895 23.9709 70.2166 29.6111C71.3431 33.528 72.3444 34.468 75.2232 34.468H78.8529L76.8503 29.1411C74.8477 24.1276 74.9729 23.6575 77.6013 19.114C82.6078 10.6536 78.3523 4.70004 67.4631 4.70004C64.5843 4.70004 62.3314 5.4834 61.9559 6.58012ZM73.2206 12.5337C74.2219 14.5705 71.5934 18.8007 69.3405 18.8007C68.3392 18.8007 67.5882 17.2339 67.5882 14.8838C67.5882 12.0637 68.214 10.967 69.9663 10.967C71.3431 10.967 72.8451 11.7503 73.2206 12.5337Z" fill="#1A57B0"/>
<path d="M83.484 8.14685C79.6039 27.7311 81.4814 34.468 90.7435 34.468C98.1281 34.468 101.132 30.8645 102.634 20.5241C104.511 7.83351 104.261 4.70004 101.508 4.70004C98.8791 4.70004 98.1281 6.58012 97.0016 17.3906C95.8752 26.6343 94.8739 28.5144 91.2441 27.8877C87.9899 27.4177 87.4892 23.9709 89.2415 11.2803C90.1176 5.01338 89.9925 4.70004 87.1137 4.70004C85.1111 4.70004 83.8595 5.79675 83.484 8.14685Z" fill="#1A57B0"/>
<path d="M107.641 7.83351C107.641 10.3403 108.517 10.967 111.395 10.967C113.523 10.967 115.15 11.2803 115.15 11.7503C115.15 12.2204 112.397 17.0772 108.892 22.5608C105.513 28.0444 102.634 32.9013 102.634 33.528C102.634 33.998 107.14 34.468 112.647 34.468C121.784 34.468 122.66 34.1547 122.66 31.3345C122.66 28.8278 121.784 28.2011 118.279 28.2011C115.901 28.2011 113.899 27.7311 113.899 27.261C113.899 26.791 116.402 22.5608 119.531 17.7039C127.291 5.79675 127.041 4.70004 116.402 4.70004C108.517 4.70004 107.641 5.01338 107.641 7.83351Z" fill="#1A57B0"/>
<path d="M134.676 7.99007C133.925 12.6903 131.422 31.9611 131.422 33.3712C131.422 35.408 145.315 34.4679 148.819 32.2745C155.328 27.8876 157.08 17.0771 152.324 10.0268C149.946 6.58001 148.068 5.63997 142.311 5.01328C135.677 4.38658 135.302 4.54325 134.676 7.99007ZM147.067 13.4736C150.822 18.3305 147.192 28.201 141.685 28.201C138.806 28.201 138.681 27.8876 139.432 22.2474C139.807 19.1139 140.183 15.1971 140.183 13.6303C140.183 10.1835 144.313 10.0268 147.067 13.4736Z" fill="#1A57B0"/>
<path d="M159.583 6.58012C158.832 9.55692 156.454 28.8278 156.454 31.8046C156.454 33.998 157.831 34.468 163.964 34.468C170.598 34.468 171.474 34.1547 171.474 31.3345C171.474 28.8278 170.598 28.2011 167.218 28.2011C163.589 28.2011 163.088 27.7311 163.589 25.0676C164.089 22.8742 165.341 21.9341 167.719 21.9341C169.722 21.9341 171.474 20.8374 171.974 19.584C172.475 17.8606 171.724 17.2339 168.971 17.2339C166.092 17.2339 165.216 16.6072 165.216 14.1005C165.216 11.5937 166.092 10.967 169.471 10.967C173.351 10.967 176.105 7.99018 174.353 5.64008C172.851 3.75999 160.084 4.70004 159.583 6.58012Z" fill="#1A57B0"/>
<path d="M178.358 8.14685C177.231 14.5705 175.229 30.2378 175.229 32.4313C175.229 33.8413 177.357 34.468 182.739 34.468C189.372 34.468 190.248 34.1547 190.248 31.3345C190.248 28.8278 189.372 28.2011 186.368 28.2011H182.363L183.239 19.8974C183.74 15.5105 184.491 10.1836 184.866 8.14685C185.367 5.32673 184.991 4.70004 182.238 4.70004C179.985 4.70004 178.858 5.64008 178.358 8.14685Z" fill="#1A57B0"/>
<path d="M202.765 7.83351C201.388 9.55692 200.261 12.0637 200.261 13.4738C200.261 17.2339 202.64 21.9341 204.517 21.9341C205.518 21.9341 206.895 23.0308 207.896 24.4409C210.149 27.7311 207.271 30.0812 203.14 28.0444C199.26 26.1643 199.385 26.1643 198.634 29.6111C197.883 33.2146 199.886 34.468 206.394 34.468C211.902 34.468 215.281 30.7079 215.281 24.5976C215.281 21.3074 214.28 19.7407 210.9 17.7039C205.018 14.2571 205.018 10.3403 210.9 11.2803C213.904 11.7503 215.406 11.1237 215.907 9.55692C217.534 4.23001 206.895 2.66328 202.765 7.83351Z" fill="#1A57B0"/>
<path d="M219.161 14.5705C217.409 27.5744 217.409 27.7311 220.288 31.3345C222.04 33.528 224.418 34.468 228.298 34.468C235.432 34.468 238.436 30.0812 239.688 17.8606C240.189 12.8471 240.814 7.99018 241.19 6.73679C241.565 5.32673 240.814 4.70004 238.687 4.70004C235.808 4.70004 235.432 5.64008 233.93 15.9805C232.178 27.1044 232.053 27.4177 228.423 27.4177C224.293 27.4177 224.168 27.1044 225.795 12.8471C226.796 4.85671 226.671 4.70004 223.667 4.70004C220.788 4.70004 220.413 5.4834 219.161 14.5705Z" fill="#1A57B0"/>
<path d="M244.82 7.99018C243.693 14.5705 241.565 30.2378 241.565 32.4313C241.565 33.528 242.942 34.468 244.569 34.468C246.822 34.468 247.698 33.3713 248.324 29.7678C249.2 23.8142 251.453 23.8142 253.206 29.7678C254.332 33.3713 255.458 34.468 258.087 34.468H261.466L259.589 28.9844C257.962 23.9709 257.962 23.3442 260.34 20.3674C265.972 13.3171 262.342 6.1101 252.455 5.01338C245.821 4.38669 245.445 4.54336 244.82 7.99018ZM255.959 12.5337C256.96 14.5705 254.332 18.8007 252.079 18.8007C251.078 18.8007 250.327 17.2339 250.327 14.8838C250.327 12.0637 250.953 10.967 252.705 10.967C254.082 10.967 255.584 11.7503 255.959 12.5337Z" fill="#1A57B0"/>
<path d="M11.515 22.2475C3.50457 31.9612 2.25294 34.468 1.12647 41.205C0.500654 45.4352 0 49.352 0 49.9787C0 50.4487 6.13301 43.0851 13.768 33.6846C21.4029 24.2842 27.5359 16.1372 27.5359 15.5105C27.5359 14.7271 21.9036 10.967 20.9023 10.967C20.7771 10.967 16.5216 16.1372 11.515 22.2475Z" fill="#1A57B0"/>
</svg>
