<svg width="263" height="50" viewBox="0 0 263 50" fill="none" xmlns="http://www.w3.org/2000/svg">
<g opacity="0.9" clip-path="url(#clip0_174:997)">
<path d="M187.771 48.8118H200.281L210.242 17.1176H197.731L187.771 48.8118Z" fill="#EE3638"/>
<path d="M213.718 1.94031C212.923 0.639109 211.486 -5.36682e-05 209.394 -5.36682e-05C207.284 -5.36682e-05 205.42 0.639109 203.802 1.94031C202.174 3.23693 201.02 5.00411 200.304 7.25229C199.6 9.50047 199.649 11.301 200.455 12.6551C201.255 13.9962 202.704 14.6765 204.781 14.6765C206.837 14.6765 208.688 13.9962 210.32 12.6603C211.951 11.3271 213.126 9.52465 213.836 7.25229C214.549 5.00411 214.504 3.23693 213.718 1.94031Z" fill="#EE3638"/>
<path fill-rule="evenodd" clip-rule="evenodd" d="M35.4159 21.7411C34.6665 20.3256 33.778 19.2662 32.7438 18.5826C31.7237 17.8787 30.5165 17.5343 29.1401 17.5343C26.9968 17.5343 25.0124 18.3525 23.207 19.9779C21.3918 21.5974 20.053 23.7645 19.2076 26.4577C18.3764 29.1007 18.3415 31.2031 19.0947 32.7788C19.8369 34.3538 21.269 35.1368 23.3598 35.1368C24.6195 35.1368 26.0041 34.7995 27.5148 34.1421C29.0353 33.4729 30.7845 32.4246 32.7896 30.9744L27.0569 47.8534C25.4027 48.567 23.8057 49.1088 22.2634 49.463C20.7243 49.8258 19.2398 49.9983 17.8105 49.9983C16.0345 49.9983 14.4 49.7624 12.9149 49.2676C11.4228 48.7736 10.1637 48.073 9.11039 47.1756C6.6015 44.8974 5.07826 41.9918 4.5314 38.5051C3.96926 35.0132 4.40587 30.9998 5.83142 26.4577C6.8853 23.1142 8.33104 20.0092 10.179 17.1382C12.0073 14.279 14.1697 11.7648 16.6409 9.57416C19.1476 7.36846 21.7733 5.69147 24.5114 4.56607C27.2561 3.42041 30.0062 2.85249 32.7863 2.85249C34.2643 2.85249 35.6582 3.04266 36.9784 3.42041C38.2942 3.80143 39.5195 4.36347 40.6427 5.12485L35.4159 21.7411Z" fill="black"/>
<path fill-rule="evenodd" clip-rule="evenodd" d="M30.2721 48.8118H42.8106L47.8393 32.8144C48.2688 31.44 48.7857 30.4048 49.3811 29.714C49.9831 29.0134 50.6462 28.669 51.3781 28.669C52.0248 28.669 52.3817 28.9644 52.463 29.546C52.5373 30.1225 52.32 31.208 51.8158 32.8144L46.7871 48.8118H59.3474L66.033 27.5449C67.1442 24.004 67.2271 21.2062 66.2546 19.1724C65.2962 17.1268 63.4515 16.104 60.708 16.104C59.0674 16.104 57.4486 16.5445 55.8604 17.4327C54.2701 18.3247 52.6448 19.6828 50.9922 21.4996C51.3508 20.5821 51.7017 19.6233 52.0526 18.6175C52.4014 17.6222 52.8604 16.2203 53.4209 14.4198L57.5491 1.30653H45.2092L30.2721 48.8118Z" fill="black"/>
<path fill-rule="evenodd" clip-rule="evenodd" d="M86.1589 28.6134L80.5151 28.5938C81.0058 27.4272 81.6056 26.5286 82.2922 25.8979C82.9722 25.2842 83.7172 24.9673 84.5183 24.9673C85.4079 24.9673 85.9957 25.2581 86.2697 25.8567C86.5328 26.4501 86.5006 27.3749 86.1589 28.6134ZM97.3979 24.0824C96.7561 21.476 95.5543 19.5043 93.7866 18.1456C92.0232 16.7843 89.7615 16.1039 87.007 16.1039C84.9943 16.1039 83.0153 16.468 81.0489 17.2006C79.0896 17.9508 77.2001 19.0344 75.3587 20.4879C73.329 22.1021 71.5498 23.9948 70.0238 26.1704C68.5006 28.3454 67.3583 30.6498 66.603 33.0568C65.852 35.4429 65.5524 37.7205 65.6937 39.883C65.8476 42.0482 66.4387 43.9703 67.4571 45.6224C68.3942 47.0543 69.6036 48.1418 71.1039 48.8823C72.6075 49.6214 74.354 50.0005 76.3417 50.0005C79.9284 50.0005 83.2554 49.0698 86.3177 47.2112C89.3751 45.3519 91.9511 42.7129 94.042 39.2785L82.7593 38.3282C82.2627 39.1243 81.7256 39.7288 81.1673 40.1457C80.6008 40.5692 80.0256 40.7771 79.4454 40.7771C78.4849 40.7771 77.8884 40.3738 77.6662 39.5922C77.4376 38.8079 77.5707 37.6165 78.0805 36.0075L78.2355 35.518L96.0084 35.4814C96.0837 35.2939 96.1667 35.0867 96.2562 34.8344C96.3391 34.5926 96.4532 34.2286 96.6082 33.7365C97.2069 31.8255 97.5704 30.0838 97.6992 28.4702C97.8285 26.873 97.7319 25.4077 97.3979 24.0824" fill="black"/>
<path fill-rule="evenodd" clip-rule="evenodd" d="M100.485 48.8118L99.3864 17.1176H112.64L111.724 28.0906C111.653 29.2977 111.567 30.2499 111.483 30.9629C111.386 31.6635 111.281 32.2916 111.161 32.8477C111.516 31.9694 112.189 30.6335 113.164 28.8631C113.346 28.5121 113.487 28.2618 113.557 28.1259L119.539 17.1176H132.942L111.818 48.8118H100.485Z" fill="black"/>
<path fill-rule="evenodd" clip-rule="evenodd" d="M145.633 32.8594C145.205 34.2377 144.57 35.3331 143.722 36.148C142.892 36.9715 141.978 37.3734 141.005 37.3734C140.036 37.3734 139.393 36.9552 139.064 36.1324C138.739 35.3115 138.778 34.2168 139.204 32.8594C139.633 31.5033 140.281 30.3943 141.134 29.546C141.978 28.7075 142.903 28.2709 143.865 28.2709C144.825 28.2709 145.474 28.6892 145.796 29.5257C146.121 30.3649 146.064 31.4883 145.633 32.8594ZM150.535 17.1182L149.214 21.312C148.664 19.5337 147.866 18.2214 146.83 17.381C145.782 16.5353 144.476 16.1039 142.885 16.1039C139.784 16.1039 136.799 17.6809 133.887 20.8107C130.988 23.9392 128.723 28.0807 127.106 33.2444C125.557 38.1623 125.275 42.19 126.258 45.3192C127.251 48.4424 129.232 50.0005 132.22 50.0005C133.867 50.0005 135.525 49.5214 137.192 48.5464C138.859 47.5739 140.632 46.0707 142.525 44.031L141.026 48.8117H152.55L162.511 17.1182H150.535Z" fill="black"/>
<path fill-rule="evenodd" clip-rule="evenodd" d="M155.701 48.8118L170.647 1.30653H183.145L168.204 48.8118H155.701Z" fill="black"/>
<path fill-rule="evenodd" clip-rule="evenodd" d="M171.645 48.8118H184.154L199.089 1.30653H186.579L171.645 48.8118Z" fill="black"/>
<path fill-rule="evenodd" clip-rule="evenodd" d="M227.891 28.6134L222.247 28.5938C222.742 27.4272 223.338 26.522 224.027 25.8979C224.707 25.2842 225.45 24.9673 226.252 24.9673C227.139 24.9673 227.731 25.262 228.007 25.8567C228.265 26.4501 228.225 27.3749 227.891 28.6134ZM239.132 24.0824C238.485 21.476 237.288 19.5115 235.522 18.1456C233.752 16.7843 231.492 16.1039 228.736 16.1039C226.722 16.1039 224.749 16.468 222.778 17.2006C220.823 17.9476 218.932 19.0344 217.088 20.4879C215.06 22.1021 213.282 23.9948 211.759 26.1704C210.229 28.3454 209.091 30.6498 208.335 33.047C207.583 35.4429 207.284 37.7205 207.431 39.883C207.582 42.0482 208.168 43.9703 209.188 45.6224C210.122 47.0543 211.338 48.1418 212.836 48.8823C214.338 49.6214 216.084 50.0005 218.071 50.0005C221.663 50.0005 224.986 49.0698 228.048 47.2112C231.106 45.3519 233.68 42.7129 235.773 39.2785L224.488 38.3282C223.995 39.1243 223.463 39.7288 222.898 40.1457C222.338 40.5692 221.754 40.7771 221.18 40.7771C220.221 40.7771 219.623 40.3738 219.398 39.5922C219.173 38.8079 219.308 37.6165 219.813 36.0075L219.967 35.518L237.738 35.4814C237.818 35.2939 237.901 35.0867 237.987 34.8344C238.07 34.5926 238.184 34.2286 238.341 33.7365C238.941 31.8255 239.3 30.0838 239.432 28.4702C239.566 26.873 239.463 25.4077 239.132 24.0824" fill="black"/>
<path fill-rule="evenodd" clip-rule="evenodd" d="M235.983 48.8118H248.518L252.462 36.2474C253.073 34.3221 253.976 32.8353 255.188 31.7628C256.384 30.7106 257.781 30.176 259.383 30.176C259.867 30.176 260.354 30.2956 260.867 30.512C261.383 30.7387 261.906 31.0832 262.458 31.5563L267.294 16.1687C267.201 16.1471 267.1 16.1301 266.973 16.1171C266.859 16.104 266.666 16.104 266.429 16.104C264.81 16.104 263.194 16.5543 261.585 17.466C259.972 18.3744 258.329 19.7475 256.68 21.5696L258.076 17.1176H245.947L235.983 48.8118Z" fill="black"/>
</g>
<defs>
<clipPath id="clip0_174:997">
<rect width="263" height="50" fill="white"/>
</clipPath>
</defs>
</svg>
