<svg width="263" height="50" viewBox="0 0 263 50" fill="none" xmlns="http://www.w3.org/2000/svg">
<path d="M17.0337 1.78126C12.6731 3.81712 6.13212 15.5233 5.99586 21.3764C5.85959 24.4302 4.49689 31.5557 2.86166 37.4088L0 48.3516H4.08808C7.63109 48.3516 8.58497 46.5702 11.5829 35.6274C13.4907 28.5019 15.9435 22.9033 16.8974 22.9033C17.9876 22.9033 19.0777 21.1219 19.6228 19.0861C20.0316 17.0502 19.7591 15.2688 19.0777 15.2688C16.6249 15.2688 17.5788 11.4516 20.5767 8.90677C26.0275 4.32608 23.3021 -1.27253 17.0337 1.78126Z" fill="#1A57B0"/>
<path d="M22.4844 22.9033C19.0777 35.373 16.3523 46.3157 16.3523 47.0791C16.3523 47.8426 17.9876 48.3516 20.1679 48.3516C23.5746 48.3516 24.5285 46.0612 29.7067 26.7205C32.8409 14.7599 35.43 3.81712 35.43 2.5447C35.43 1.01781 33.9311 -0.000118256 32.0233 -0.000118256C29.1617 -0.000118256 27.799 3.30816 22.4844 22.9033Z" fill="#1A57B0"/>
<path d="M87.6212 25.4481L82.0342 48.3516H85.986C89.2565 48.3516 90.3466 46.5702 93.3446 35.6274C95.7974 26.7205 97.5689 22.9033 99.4767 22.9033C102.883 22.9033 102.883 23.4123 99.4767 35.6274C96.0699 48.3516 96.0699 48.3516 100.567 48.3516C103.974 48.3516 104.927 46.3157 108.198 33.3371C110.378 25.1937 111.605 17.0502 111.196 15.5233C109.969 11.9606 104.246 11.9606 100.703 15.2688C97.5689 18.5771 97.4326 15.7778 100.294 8.14332C102.338 2.79919 102.202 2.5447 97.8414 2.5447C93.4808 2.5447 93.072 3.30816 87.6212 25.4481Z" fill="#1A57B0"/>
<path d="M142.947 24.1757C140.085 36.1364 137.632 46.5702 137.632 47.0791C137.632 47.8426 163.251 48.3516 194.593 48.3516H251.553L257.277 26.7205C260.411 14.7599 263 4.58057 263 3.81712C263 3.05367 237.245 2.5447 205.631 2.5447H148.397L142.947 24.1757ZM180.421 10.9426C181.647 14.7599 181.375 16.2868 178.649 20.104C176.333 23.4123 175.924 25.1937 177.15 25.9571C179.603 27.484 178.104 34.355 174.152 39.1902C170.746 43.2619 149.079 47.5881 145.399 45.0433C143.628 43.7709 144.173 40.2081 148.261 24.1757L153.167 4.83505L166.112 5.5985C176.741 6.36194 179.194 7.12539 180.421 10.9426ZM200.316 7.63436C200.316 9.16125 199.09 15.0144 197.454 20.8674C194.184 32.5736 195.41 37.1543 200.997 34.6095C203.723 33.3371 205.494 29.2654 207.947 19.0861C211.354 5.5985 211.626 5.08953 216.805 5.08953C219.666 5.08953 222.119 6.36194 222.119 7.63436C222.119 13.7419 215.033 35.8819 211.899 39.6992C207.675 44.7888 192.685 47.3336 187.643 43.5164C182.329 39.6992 182.056 35.8819 186.008 19.595C189.551 5.5985 189.823 5.08953 195.002 5.08953C197.863 5.08953 200.316 6.36194 200.316 7.63436ZM253.189 8.14332C257.822 16.7957 251.008 21.3764 243.241 14.7599C240.652 12.724 239.289 12.724 238.199 14.7599C237.109 16.7957 238.199 18.0681 242.015 19.3406C249.237 21.6309 252.098 24.6847 252.098 30.2833C252.098 37.6633 245.694 43.7709 236.564 45.0433C226.752 46.5702 220.348 42.7529 221.029 36.1364C221.574 31.5557 226.48 31.0467 235.474 34.355C238.063 35.373 239.834 35.1185 239.834 33.5916C239.834 32.3192 237.245 30.5378 234.111 29.5199C223.891 26.4661 221.983 18.5771 229.341 10.1792C234.383 4.32608 250.463 3.05367 253.189 8.14332Z" fill="#EE3638"/>
<path d="M161.479 17.8136C160.934 19.3405 162.297 20.3584 164.75 20.3584C166.93 20.3584 169.247 19.086 169.655 17.8136C170.201 16.2867 168.838 15.2687 166.385 15.2687C164.205 15.2687 161.888 16.2867 161.479 17.8136Z" fill="#EE3638"/>
<path d="M157.527 31.8102C156.982 34.6095 157.664 35.6274 159.98 35.6274C164.205 35.6274 167.611 33.0826 167.611 30.2833C167.611 26.2116 158.481 27.7385 157.527 31.8102Z" fill="#EE3638"/>
<path d="M42.7886 11.1969C35.1575 17.559 29.2979 36.8997 32.7047 44.5341C36.1114 52.1686 53.1451 47.079 53.1451 38.4266C53.1451 36.1362 47.8306 36.6452 44.6964 39.19C42.2435 41.2259 39.5181 39.4445 39.5181 35.3728C39.5181 34.1004 43.1974 33.0824 47.6943 33.0824C54.2352 33.0824 56.0067 32.0645 57.2332 28.2473C61.7301 12.2149 53.5539 2.54453 42.7886 11.1969ZM50.4197 21.6307C50.4197 23.9211 49.1933 25.448 47.013 25.448C43.7425 25.448 42.6523 22.9031 44.5601 19.5949C46.1953 16.2866 50.4197 17.8135 50.4197 21.6307Z" fill="#1A57B0"/>
<path d="M68.5435 11.7062C62.9565 16.7958 58.3233 30.5379 58.8684 39.9538C59.2772 46.5703 59.686 47.0793 66.3632 47.8427C72.6316 48.6062 73.858 47.5882 77.9461 40.9717L82.443 33.3372L78.0824 33.0827C75.7658 33.0827 73.313 34.1007 72.9041 35.6276C71.6777 39.4448 66.772 38.6813 66.772 34.6096C66.772 32.5738 68.271 27.4841 70.0425 23.6669C72.7679 18.0683 73.7218 17.0503 75.0845 19.5952C77.8098 24.6848 84.487 23.6669 84.487 18.3227C84.487 7.38 76.7197 4.32621 68.5435 11.7062Z" fill="#1A57B0"/>
<path d="M123.324 10.1791C121.689 11.197 119.645 14.2508 118.554 16.5411C116.647 20.8673 116.919 21.1218 124.005 19.3404C133.544 17.0501 131.636 22.3942 121.689 25.7025C114.875 27.9928 110.378 35.1183 110.378 43.2618C110.378 49.1149 114.466 51.6597 118.691 48.8604C120.462 47.588 124.141 47.079 126.867 47.588C131.773 48.8604 131.773 48.8604 135.588 32.0646C138.722 18.3225 139.131 14.7597 137.632 11.4515C135.861 7.37975 127.957 6.6163 123.324 10.1791ZM125.368 36.8997C123.46 41.2259 119.917 41.9894 119.917 38.1721C119.917 35.3728 125.64 30.2832 126.594 32.0646C126.867 32.5735 126.322 34.6094 125.368 36.8997Z" fill="#1A57B0"/>
</svg>
