<svg width="260" height="50" viewBox="0 0 260 50" fill="none" xmlns="http://www.w3.org/2000/svg">
<path d="M95.2531 23.6648C95.2531 10.6795 73.9545 0.105957 47.677 0.105957C21.4015 0.104487 0.104797 10.678 0.104797 23.6633V25.0515C0.104797 38.8207 18.7064 49.9721 47.6809 49.9721C76.7912 49.9721 95.2551 38.8207 95.2551 25.0515V23.6633L95.2531 23.6648Z" fill="#2C3378"/>
<path d="M93.4195 23.6649C93.4195 35.8899 72.9513 45.8119 47.6789 45.8119C22.4046 45.8119 1.97131 35.8899 1.97131 23.6649C1.97131 11.4399 22.4395 1.51782 47.7119 1.51782C72.9862 1.51782 93.4195 11.4149 93.4195 23.6649Z" fill="#ABD037"/>
<path d="M32.5001 16.6765C32.4651 16.7015 32.015 17.0677 32.3254 17.3559C33.0531 18.0618 35.2669 18.4559 37.5487 18.0618C38.8972 17.8265 40.626 16.8059 42.2831 15.7853C44.0817 14.6853 45.8804 13.6133 47.6771 13.1677C49.5786 12.6971 50.8242 12.9059 51.6198 13.0897C52.5181 13.2986 53.5562 13.7442 55.2151 14.6853C58.3623 16.4647 70.9121 24.7912 73.0911 26.2295C74.8529 25.628 82.6335 23.0897 93.212 21.3353C92.2807 17.0677 88.856 13.1677 83.6696 9.97357C76.409 12.278 67.5593 13.4824 58.9153 10.2883C58.8804 10.2618 54.179 8.58681 49.5437 8.66475C42.6653 8.7971 39.6908 11.0471 36.5437 13.4295L32.5001 16.675V16.6765Z" fill="white"/>
<path d="M72.5711 27.1471C72.4353 27.0412 57.7744 17.3294 54.4545 15.4456C52.553 14.3456 51.482 14.0839 50.3411 13.9794C49.7532 13.9265 48.9577 14.0059 48.3698 14.1103C46.8136 14.4236 44.8093 15.4456 43.0107 16.5177C41.1441 17.6442 39.4153 18.6912 37.7912 18.9794C35.7151 19.3192 33.1927 18.9265 32.0169 18.325C31.5318 18.0897 31.2214 17.8015 31.0468 17.5397C30.6335 16.7794 31.3941 16.178 31.5318 16.0986L35.6123 12.775C36.0974 12.4074 36.5436 12.0692 37.0287 11.728C35.7151 11.8589 34.5063 12.1206 33.3305 12.3559C31.8772 12.6706 30.4589 12.9589 29.0424 12.9589C28.4545 12.9589 25.2744 12.5662 24.6515 12.4339C20.9863 11.6765 17.7732 10.9427 13.0001 9.24121C7.26065 12.4618 3.42274 16.5177 2.31677 20.9692C3.14722 21.125 4.4608 21.4397 5.04871 21.5177C18.0487 23.7177 22.0923 25.9692 22.8529 26.4397C23.2546 26.0931 23.7495 25.8157 24.3044 25.626C24.8592 25.4362 25.4612 25.3386 26.0699 25.3397C27.5212 25.3397 28.7999 25.8897 29.5954 26.728C30.356 26.2824 31.3592 25.8897 32.7077 25.8897C33.2956 25.8897 33.9514 25.9692 34.5742 26.125C36.0275 26.5177 36.7862 27.2515 37.2014 27.9044C37.6865 27.7486 38.3074 27.6177 39.0001 27.6177C39.6908 27.6177 40.4165 27.75 41.179 27.9853C43.5656 28.7692 43.9439 30.55 43.7363 31.8853C43.911 31.8589 44.0817 31.8589 44.2563 31.8589C45.6208 31.8608 46.9287 32.2722 47.8941 33.003C48.8595 33.7339 49.4037 34.7247 49.4078 35.7589C49.4078 36.4133 49.2002 37.0412 48.785 37.5912C49.5456 37.9324 51.5169 38.6647 53.2438 38.5074C54.6272 38.3765 55.1453 38.0103 55.3529 37.828C55.4926 37.6956 55.6304 37.5397 55.4926 37.4089L51.8254 34.3206C51.8254 34.3206 51.2395 33.875 51.4121 33.7177C51.6198 33.5339 52.0001 33.7956 52.2426 33.953C54.1092 35.1309 56.3909 36.9103 56.3909 36.9103C56.4259 36.9368 56.5656 37.1456 57.429 37.278C58.1547 37.3809 59.4333 37.3294 60.3317 36.7544C60.5393 36.6221 60.7818 36.4397 60.9545 36.2559L60.9196 36.2824C61.8529 35.3662 60.8168 34.45 60.8168 34.45L56.4938 30.8912C56.4938 30.8912 55.8729 30.4706 56.0805 30.2883C56.2532 30.1309 56.6684 30.3662 56.9439 30.5236C58.2924 31.3868 60.2289 32.828 62.0605 34.1883C62.4078 34.3986 64.0318 35.1309 66.1739 34.0839C67.4895 33.4294 67.732 32.6427 67.6971 32.0412C67.5923 31.2559 66.7987 30.6809 66.7987 30.6809L60.9545 26.2309C60.9545 26.2309 60.3336 25.8383 60.5393 25.628C60.7139 25.4456 61.1272 25.7074 61.3698 25.8633C63.2363 27.0412 68.285 30.55 68.285 30.55C68.3529 30.5765 70.0817 31.5177 72.2607 30.4971C73.0212 30.1309 73.5412 29.5559 73.5742 28.9C73.5783 28.5709 73.4911 28.2448 73.3183 27.9428C73.1455 27.6408 72.891 27.3697 72.5711 27.1471V27.1471Z" fill="white"/>
<path d="M44.1865 32.7751C43.2881 32.7751 42.285 33.1677 42.1472 33.1148C42.0774 33.0898 42.2151 32.8015 42.283 32.6442C42.3878 32.4868 43.5636 29.7648 40.659 28.8221C38.4471 28.0898 37.0636 28.9001 36.6135 29.2927C36.4777 29.3986 36.4408 29.3721 36.4078 29.2677C36.3729 28.7692 36.0605 27.4604 34.159 27.0163C31.3941 26.3868 29.6303 27.828 29.1802 28.3515C29.0765 27.7716 28.7023 27.239 28.1254 26.85C27.5485 26.4611 26.807 26.2415 26.035 26.231C24.2712 26.231 22.8529 27.3045 22.8529 28.6383C22.8529 29.9736 24.2712 31.0471 26.035 31.0471C26.8605 31.0448 27.653 30.8009 28.2469 30.3663C28.2469 30.3663 28.2818 30.3927 28.2469 30.4457C28.1091 31.0471 27.8666 33.2207 30.876 34.1104C32.0848 34.4765 33.0879 34.1883 33.9514 33.7427C34.1939 33.6133 34.2288 33.6648 34.1939 33.8486C34.0911 34.3986 34.2288 35.6015 36.4408 36.2824C38.1366 36.806 39.1378 36.2824 39.7606 35.8118C40.0381 35.6015 40.106 35.6545 40.1409 35.9427C40.2108 37.5663 42.0075 38.8486 44.1515 38.8486C46.3635 38.8486 48.1621 37.4868 48.1621 35.8118C48.1971 34.1354 46.3984 32.8015 44.1845 32.7751H44.1865Z" fill="white"/>
<path d="M73.126 25.9691C68.6303 22.9839 58.1895 16.125 55.3528 14.528C53.7288 13.6133 52.6558 13.1162 51.6895 12.9059C51.1077 12.7668 50.501 12.6964 49.8909 12.6971C49.1652 12.6971 48.4046 12.8 47.6091 12.9839C45.7775 13.4294 43.9788 14.503 42.2151 15.5765L42.1122 15.628C40.4863 16.6236 38.7943 17.6427 37.5137 17.853C36.9595 17.9568 36.3908 18.0096 35.8198 18.0103C34.3666 18.0103 33.0879 17.6971 32.6028 17.225C32.5349 17.1471 32.5698 17.0162 32.7775 16.8324L32.8104 16.8059L36.788 13.5603C39.8983 11.2044 42.8379 8.97944 49.5804 8.87503H49.9258C54.144 8.87503 58.3273 10.3147 58.8124 10.4706C62.7512 11.9368 66.8316 12.6706 70.9121 12.6706C75.1652 12.6706 79.591 11.8853 84.2225 10.2618C83.6964 9.92441 83.1547 9.60117 82.5985 9.29268C78.518 10.628 74.6472 11.3089 70.9121 11.3089C67.1091 11.3089 63.2712 10.603 59.571 9.24121C59.3634 9.16179 54.7319 7.51326 49.8909 7.51326H49.5106C43.841 7.61768 40.624 9.13679 38.4819 10.4706C36.3728 10.4971 34.5742 10.8897 32.9831 11.2309C31.5667 11.5441 30.321 11.8059 29.1122 11.7794C28.6272 11.7794 27.7288 11.7544 27.626 11.7544C26.2425 11.728 19.2575 10.4191 13.6907 8.82209L12.0318 9.76326C17.841 11.5721 24.9289 12.9589 27.1409 13.0633C27.7618 13.0897 28.4215 13.1412 29.0773 13.1412C30.5636 13.1412 32.0169 12.828 33.4682 12.5133C34.2986 12.3294 35.2319 12.1456 36.2331 11.9897C35.9576 12.1721 35.7151 12.3824 35.4376 12.5662L31.394 15.8633C31.0836 16.0986 30.3909 16.7544 30.841 17.5397C31.0137 17.853 31.394 18.1677 31.9121 18.4294C32.8803 18.9265 34.6091 19.2412 36.2001 19.2412C36.821 19.2412 37.376 19.1883 37.894 19.1089C39.5879 18.8221 41.3516 17.7486 43.2531 16.6236C44.7394 15.7324 46.8815 14.5809 48.5075 14.2412C48.9576 14.1368 49.5106 14.0839 49.9607 14.0839C50.0966 14.0839 50.2363 14.0839 50.341 14.1103C51.4121 14.2147 52.4501 14.503 54.3167 15.55C57.6346 17.4339 72.2606 27.1471 72.4333 27.2265C72.4333 27.2265 73.3666 27.853 73.2986 28.8486C73.2637 29.4236 72.8485 29.9221 72.1228 30.2618C71.5 30.55 70.8422 30.7074 70.1864 30.7074C69.2163 30.7074 68.5275 30.3662 68.4925 30.3397C68.4227 30.3147 63.4089 26.8324 61.5773 25.6544C61.2998 25.4706 60.9894 25.3147 60.7119 25.3147C60.5675 25.3192 60.4311 25.3661 60.3316 25.4456C60.0561 25.7074 60.3666 26.1 60.7469 26.3353L66.626 30.7853C66.626 30.7853 67.3516 31.3089 67.4215 31.9897C67.4545 32.7221 67.0063 33.3515 66.038 33.8221C65.3454 34.1618 64.6546 34.3456 63.9619 34.3456C63.3689 34.3468 62.7897 34.2097 62.303 33.953L61.4725 33.325C59.9513 32.1721 58.3622 30.9941 57.1845 30.2618C56.9089 30.078 56.5985 29.9221 56.321 29.9221C56.1766 29.9265 56.0402 29.9735 55.9407 30.053C55.8049 30.1559 55.7331 30.3662 56.0455 30.7074C56.1833 30.8383 56.356 30.9691 56.356 30.9691L60.644 34.6074C60.6789 34.6339 61.5075 35.3927 60.7469 36.1515L60.5063 36.3868C60.3666 36.4927 60.2288 36.5971 60.091 36.675C59.3634 37.1206 58.3972 37.1721 58.0149 37.1721C57.8092 37.1721 57.6016 37.1471 57.4289 37.1471C57.0137 37.0941 56.7363 36.9897 56.5985 36.8853L56.5636 36.8324C56.321 36.6486 54.177 34.9736 52.3803 33.8471C52.1378 33.6912 51.8622 33.5089 51.5498 33.5089C51.4057 33.5129 51.2693 33.5593 51.1695 33.6383C50.8242 33.9265 51.3442 34.3721 51.5848 34.5294L55.25 37.5662C55.25 37.5912 55.2151 37.6441 55.1122 37.7486C54.9725 37.8809 54.5243 38.2191 53.2107 38.3515C53.0361 38.3765 52.9003 38.3765 52.7257 38.3765C51.3772 38.3765 49.8909 37.8794 49.1652 37.5662C49.5106 37.0162 49.6833 36.4133 49.6833 35.8118C49.6853 35.2701 49.5466 34.7334 49.2749 34.2323C49.0033 33.7313 48.6041 33.2757 48.1002 32.8915C47.5962 32.5074 46.9974 32.2023 46.3379 31.9935C45.6783 31.7848 44.971 31.6766 44.2563 31.675H44.0486C44.1515 30.628 43.9439 28.6647 41.2818 27.8015C40.5674 27.5476 39.789 27.4137 39 27.4089C38.4121 27.4089 37.8591 27.4868 37.341 27.6441C37.0722 27.2388 36.6976 26.8791 36.2401 26.5866C35.7825 26.2942 35.2514 26.0751 34.6789 25.9427C34.0476 25.7671 33.38 25.6785 32.7076 25.6809C31.6016 25.6809 30.5636 25.9162 29.6652 26.4133C29.2326 26.0057 28.6852 25.6767 28.0631 25.4502C27.441 25.2237 26.76 25.1056 26.0698 25.1044C24.8591 25.1044 23.6833 25.4721 22.8198 26.125C21.6789 25.4706 17.1833 23.2986 5.11656 21.2309C4.20073 21.055 3.29048 20.8628 2.38656 20.6544C2.24939 21.1476 2.14577 21.6458 2.07611 22.1471L4.73626 22.6177C17.0455 24.6853 21.126 26.8324 21.8167 27.25C21.5827 27.6731 21.4652 28.128 21.4713 28.5868C21.4724 29.5173 21.9608 30.4094 22.8292 31.067C23.6977 31.7247 24.8752 32.0941 26.1028 32.0941C26.3803 32.0941 26.6578 32.0677 26.9333 32.0412C27.3136 33.4559 28.5592 34.5294 30.4258 35.078C30.9788 35.2353 31.5318 35.3133 32.0848 35.3133C32.4301 35.3133 32.7775 35.2883 33.1228 35.2103C33.4682 35.8633 34.2637 36.7015 35.9925 37.2515C36.6134 37.4339 37.2013 37.5397 37.7892 37.5397C38.2743 37.5397 38.7594 37.4868 39.2057 37.3559C39.5483 37.991 40.0943 38.5513 40.7945 38.9862C41.4946 39.4211 42.3267 39.7169 43.2156 39.8469C44.1045 39.9768 45.0221 39.9367 45.8854 39.7303C46.7487 39.5239 47.5305 39.1577 48.1601 38.6647C49.0275 39.0324 50.894 39.7118 52.7606 39.7118C53.0031 39.7118 53.2457 39.7118 53.4513 39.6853C55.3198 39.503 56.1833 38.953 56.5636 38.5339L56.7712 38.2986C57.2213 38.403 57.7045 38.4824 58.2575 38.4824C59.2606 38.4824 60.2637 38.2206 61.2319 37.6706C62.2001 37.1471 62.8909 36.3868 62.9937 35.7324V35.7074C63.3042 35.7589 63.6534 35.7853 63.9969 35.7853C65.0349 35.7853 66.073 35.55 67.0392 35.053C68.9407 34.1103 69.2512 32.8794 69.2182 32.0677C69.5636 32.1206 69.876 32.1471 70.2213 32.1471C71.1895 32.1471 72.1577 31.9118 73.091 31.4662C74.2669 30.8897 74.9576 30.025 75.0954 29.0059C75.167 28.3098 74.9499 27.6142 74.4745 27.0162C77.6546 25.9691 84.9133 23.9794 93.4894 22.5133C93.4479 22.011 93.3552 21.512 93.2119 21.0206C82.7712 22.8 75.0604 25.3147 73.126 25.9691V25.9691ZM44.1864 38.6383C43.2254 38.6405 42.3004 38.3614 41.6044 37.8591C40.9085 37.3569 40.4954 36.6703 40.4513 35.9427C40.4513 35.8103 40.4183 35.4721 40.0381 35.4721C39.8634 35.4721 39.7276 35.55 39.5879 35.6544C39.1378 35.9691 38.5848 36.2824 37.7563 36.2824C37.376 36.2824 36.9937 36.2044 36.5455 36.0736C34.4364 35.4191 34.4015 34.3191 34.4694 33.875C34.5063 33.7427 34.5063 33.6397 34.4015 33.5339L34.2637 33.4559H34.126C34.0212 33.4559 33.9184 33.4824 33.7437 33.5589C33.1228 33.875 32.5349 34.0589 31.947 34.0589C31.6016 34.0589 31.2892 34.0059 30.9439 33.9C28.144 33.0897 28.3866 31.0736 28.4894 30.4706C28.5243 30.3397 28.4545 30.2618 28.3866 30.1839L28.1789 30.0515L28.0043 30.1839C27.4642 30.5735 26.7457 30.7891 26 30.7853C24.4089 30.7853 23.0954 29.7912 23.0954 28.5868C23.0954 27.3809 24.4089 26.3868 26 26.3868C27.4513 26.3868 28.6621 27.1986 28.8697 28.2986L28.9725 28.9015L29.3878 28.403C29.4227 28.3515 30.5985 26.9897 32.7775 27.0162C33.1907 27.0162 33.606 27.0677 34.0212 27.1721C35.75 27.5662 36.0275 28.7441 36.0604 29.2412C36.0954 29.5294 36.3709 29.5294 36.4078 29.5294C36.5436 29.5294 36.6483 29.45 36.7531 29.3971C37.0636 29.1368 37.7892 28.7177 38.8972 28.7177C39.4152 28.7177 39.9333 28.8221 40.4882 28.9794C43.2182 29.8691 41.9725 32.4868 41.9725 32.5133C41.7319 32.9589 41.7319 33.1412 41.9395 33.2456L42.0424 33.2721H42.1122C42.25 33.2721 42.3878 33.2206 42.6303 33.1677C43.0106 33.0633 43.5636 32.9324 44.0816 32.9324C46.1228 32.9589 47.8167 34.2147 47.8167 35.7589C47.8398 36.1309 47.763 36.5025 47.5909 36.8514C47.4189 37.2002 47.1551 37.5189 46.8156 37.7881C46.4762 38.0574 46.0681 38.2716 45.6161 38.4177C45.1642 38.5638 44.6778 38.6389 44.1864 38.6383V38.6383ZM257.303 8.66474C255.576 7.04121 252.982 6.23091 249.489 6.23091C245.997 6.23091 243.405 7.04121 241.676 8.66474C239.947 10.2883 239.082 12.225 239.082 14.4236C239.082 16.675 239.947 18.6133 241.676 20.2089C243.403 21.8059 245.997 22.6177 249.489 22.6177C252.982 22.6177 255.609 21.8059 257.303 20.2089C259.032 18.6133 259.862 16.675 259.862 14.4236C259.897 12.1986 259.032 10.2883 257.303 8.66474V8.66474ZM253.05 18.0103C252.221 18.8486 251.011 19.2677 249.454 19.2677C247.898 19.2677 246.69 18.8486 245.859 18.0103C245.029 17.1721 244.613 15.9956 244.613 14.4515C244.613 12.9059 245.029 11.728 245.859 10.8897C246.69 10.0515 247.898 9.63385 249.454 9.63385C251.011 9.63385 252.221 10.053 253.05 10.8897C253.88 11.728 254.295 12.9044 254.295 14.45C254.33 15.9691 253.88 17.1721 253.05 18.0103V18.0103ZM213.429 7.30297C211.7 6.62356 209.694 6.30885 207.447 6.30885C203.989 6.30885 201.568 6.98973 200.151 8.3515C199.253 9.21473 198.768 10.3397 198.63 11.675H203.782C203.92 11.0721 204.162 10.6015 204.542 10.2618C205.06 9.79121 205.959 9.55591 207.239 9.55591C208.38 9.55591 209.244 9.68532 209.832 9.92209C210.42 10.1574 210.697 10.6015 210.697 11.2309C210.697 11.7544 210.317 12.1206 209.556 12.3824C209.141 12.5133 208.415 12.6441 207.412 12.75L205.58 12.9324C203.504 13.1412 201.913 13.4559 200.877 13.9265C198.941 14.7647 197.94 16.1515 197.94 18.0633C197.94 19.5294 198.527 20.6544 199.771 21.4662C200.982 22.2515 202.503 22.5912 204.37 22.6706C216.021 23.0633 215.883 18.0103 215.986 16.9647V11.0986C216.056 9.23973 215.191 7.95738 213.429 7.3015V7.30297ZM210.732 16.1C210.697 17.4603 210.179 18.3765 209.211 18.9C208.274 19.4082 207.146 19.6747 205.994 19.6603C205.268 19.6603 204.647 19.503 204.127 19.1897C203.609 18.875 203.367 18.3765 203.367 17.6971C203.367 16.9103 203.782 16.3618 204.612 15.9941C205.097 15.7853 205.926 15.6015 207.067 15.4456L208.277 15.2618C208.863 15.1839 209.348 15.078 209.694 14.9736C210.039 14.8691 210.387 14.7383 210.732 14.5809V16.1V16.1ZM186.876 9.73826C188.19 9.73826 189.191 10.053 189.814 10.6794C190.264 11.1515 190.506 11.65 190.609 12.225H196.383C196.073 10.0265 195.035 8.50738 193.341 7.64415C191.612 6.77944 189.433 6.33532 186.736 6.33532C183.554 6.33532 181.102 7.06768 179.305 8.53385C177.506 10 176.608 12.0677 176.608 14.7118C176.608 17.0412 177.436 18.953 179.06 20.4177C180.686 21.8853 183.244 22.6177 186.666 22.6177C190.126 22.6177 192.718 21.728 194.482 19.9736C195.588 18.875 196.209 17.7236 196.314 16.4927H190.576C190.473 17.303 190.128 17.9589 189.573 18.4824C189.02 18.9794 188.087 19.2412 186.773 19.2412C184.907 19.2412 183.661 18.6133 182.97 17.3294C182.59 16.6486 182.417 15.7324 182.417 14.6074C182.417 13.4294 182.59 12.4868 182.97 11.7544C183.696 10.4191 185.009 9.73826 186.878 9.73826H186.876ZM175.05 6.33532C163.261 6.33532 163.951 14.2412 163.951 14.2412V22.278H169.31V14.7383C169.31 13.5074 169.518 12.5912 169.933 11.9883C170.659 10.9427 172.112 10.4191 174.256 10.4191C174.429 10.4191 174.637 10.4191 174.877 10.4456C175.155 10.4456 175.43 10.4706 175.777 10.4971V6.36179C175.535 6.36179 175.397 6.33532 175.327 6.33532H175.05V6.33532ZM155.379 18.0883C155.17 18.3236 154.894 18.5339 154.651 18.6912C153.891 19.1618 152.853 19.2941 151.644 19.2941C150.503 19.2941 149.603 19.1618 148.809 18.7691C147.461 18.1412 146.733 17.0941 146.63 15.5486H161.462C161.497 14.2147 161.429 13.1941 161.289 12.4868C161.075 11.3425 160.519 10.2502 159.665 9.29268C158.732 8.24562 157.556 7.48679 156.138 7.01621C154.721 6.54562 153.13 6.31032 151.367 6.31032C148.394 6.31032 145.973 7.01621 144.106 8.45591C142.239 9.86915 141.306 11.9368 141.306 14.5809C141.306 17.4339 142.342 19.4765 144.418 20.7589C146.493 22.0162 148.877 22.6441 151.574 22.6441C154.859 22.6441 157.418 21.8853 159.215 20.3927C160.185 19.6074 160.806 18.8221 161.082 18.0633H155.377V18.0897L155.379 18.0883ZM148.186 10.55C148.947 9.97356 149.983 9.66032 151.368 9.66032C152.61 9.66032 153.683 9.94709 154.512 10.4986C155.342 11.0471 155.827 11.8589 155.93 12.9324H146.768C146.943 11.9103 147.426 11.125 148.184 10.55H148.186ZM139.127 22.278H134.253V12.9589C134.253 12.0941 133.873 10.078 130.658 10.078C128.514 10.078 126.958 11.2559 126.958 12.9589V22.278H122.049V12.9589C122.049 12.0941 121.701 10.078 118.486 10.078C116.309 10.078 114.788 11.2559 114.788 12.9589V22.278H109.879V13.0633C109.879 9.21474 113.267 6.30885 118.486 6.30885C121.08 6.30885 123.19 7.14709 124.571 8.45591C126.024 7.12062 128.168 6.30885 130.658 6.30885C135.982 6.30885 139.162 9.11032 139.162 13.0633V22.278H139.127V22.278ZM237.527 1.46621C237.527 1.46621 232.133 1.02062 232.133 4.31915V8.66474C231.561 7.95995 230.764 7.37503 229.817 6.96326C228.847 6.54415 227.777 6.33532 226.532 6.33532C223.87 6.33532 221.726 7.09415 220.137 8.58532C218.546 10.1044 217.75 12.2765 217.75 14.8941C217.75 17.1736 218.546 19.0309 220.17 20.4971C221.796 21.9633 224.976 22.5912 227.81 22.5912C237.665 22.5912 237.56 16.178 237.56 16.178L237.527 1.46621ZM231.095 18.0368C230.3 18.875 229.159 19.3191 227.673 19.3191C226.151 19.3191 225.046 18.9 224.32 18.0368C223.592 17.1721 223.214 15.9427 223.214 14.5294C223.214 13.2206 223.559 12.0941 224.32 11.2044C225.046 10.3147 226.186 9.86915 227.743 9.86915C228.779 9.86915 229.644 10.1044 230.44 10.6015C231.683 11.4133 232.341 12.8809 232.341 14.7383C232.271 16.1 231.856 17.1986 231.095 18.0368V18.0368Z" fill="#2C3378"/>
<path d="M218.561 32.0943C216.834 30.4707 214.24 29.6605 210.747 29.6605C207.255 29.6605 204.663 30.4707 202.934 32.0943C201.205 33.7178 200.375 35.6546 200.375 37.8796C200.375 40.131 201.24 42.0678 202.934 43.6913C204.661 45.2884 207.255 46.1002 210.747 46.1002C214.24 46.1002 216.867 45.2884 218.561 43.6913C220.29 42.0943 221.12 40.1575 221.12 37.8796C221.155 35.6296 220.29 33.7178 218.561 32.0943ZM214.308 41.4399C213.479 42.2781 212.271 42.6972 210.713 42.6972C209.156 42.6972 207.948 42.2781 207.117 41.4399C206.287 40.6016 205.873 39.4252 205.873 37.881C205.873 36.3355 206.287 35.1575 207.117 34.3193C207.948 33.481 209.156 33.0634 210.713 33.0634C212.269 33.0634 213.479 33.4825 214.308 34.3193C215.138 35.1575 215.554 36.334 215.554 37.8796C215.554 39.3987 215.138 40.6016 214.308 41.4399V41.4399ZM142.913 41.4663C142.705 41.7016 142.463 41.9105 142.187 42.0693C141.426 42.5399 140.388 42.6972 139.18 42.6972C138.037 42.6972 137.173 42.5649 136.343 42.1722C135.029 41.5443 134.304 40.4707 134.234 38.9531H148.928C148.963 37.6443 148.895 36.6237 148.755 35.9163C148.54 34.7802 147.985 33.6966 147.131 32.7487C146.198 31.7281 145.055 30.9693 143.638 30.4987C142.222 30.0266 140.666 29.7913 138.902 29.7913C135.928 29.7913 133.543 30.4972 131.676 31.9105C129.808 33.3252 128.91 35.3399 128.91 37.984C128.91 40.8119 129.948 42.8531 131.987 44.1105C134.026 45.3663 136.411 45.9943 139.075 45.9943C142.325 45.9943 144.849 45.2619 146.646 43.7693C147.616 42.984 148.237 42.2252 148.479 41.4663H142.911H142.913ZM135.792 33.9796C136.55 33.4031 137.589 33.1149 138.935 33.1149C140.181 33.1149 141.219 33.3766 142.047 33.9266C142.878 34.4766 143.363 35.2884 143.466 36.3355H134.373C134.579 35.3399 135.029 34.556 135.79 33.9796H135.792ZM161.029 29.7913C171.99 30.1575 171.332 37.6972 171.332 37.6972V45.6016H165.973V38.1943C165.973 36.9634 165.766 36.0472 165.352 35.4443C164.625 34.3987 163.173 33.8487 161.029 33.8487H160.994C158.85 33.8487 157.399 34.3722 156.673 35.4457C156.258 36.0472 156.052 36.9634 156.052 38.1943V45.6016H150.691V37.6972C150.691 37.6972 150.036 30.2355 160.787 29.8163L161.029 29.7913V29.7913ZM198.578 28.456H193.669L195.085 25.209H199.994L198.578 28.456ZM193.184 30.209H198.578V45.6016H193.184V30.209ZM183.849 45.5502H178.42L171.332 30.1825H177.004L181.047 40.9943L184.645 31.5707C185.058 30.6546 185.853 30.184 187.099 30.184H191.075L183.849 45.5502ZM227.828 40.6031C227.931 41.309 228.173 41.8325 228.554 42.1207C229.209 42.6707 230.455 42.9325 232.219 42.9325C233.255 42.9325 234.12 42.8002 234.708 42.5649C235.329 42.3296 235.64 41.9634 235.64 41.4913C235.651 41.2846 235.586 41.0796 235.452 40.8993C235.318 40.719 235.12 40.5706 234.881 40.4707C234.396 40.2355 232.529 39.8428 229.312 39.2678C226.997 38.8222 225.373 38.2972 224.438 37.6443C223.507 37.0163 223.022 36.0737 223.022 34.8693C223.022 33.456 223.747 32.2252 225.234 31.2046C226.72 30.184 228.796 29.6605 231.493 29.6605C234.05 29.6605 236.125 30.0531 237.716 30.8119C239.307 31.5707 240.238 32.906 240.481 34.7913H235.156C235.088 34.2678 234.881 33.8487 234.568 33.5605C233.981 33.0105 232.977 32.7487 231.561 32.7487C230.385 32.7487 229.557 32.881 229.072 33.1678C228.587 33.4296 228.346 33.7707 228.346 34.1369C228.346 34.6075 228.623 34.9222 229.141 35.131C229.66 35.3399 231.528 35.7075 234.708 36.256C236.817 36.6237 238.406 37.1987 239.479 37.959C240.516 38.7443 241.036 39.6855 241.036 40.8634C241.036 42.3825 240.275 43.6384 238.787 44.6075C237.3 45.5766 234.949 46.0472 231.802 46.0472C228.589 46.0472 226.237 45.5502 224.716 44.5031C223.194 43.4825 222.434 42.1722 222.434 40.6016H227.828V40.6031Z" fill="white"/>
</svg>
