<svg width="263" height="50" viewBox="0 0 263 50" fill="none" xmlns="http://www.w3.org/2000/svg">
<g clip-path="url(#clip0_564:214)">
<path d="M194.93 9.05135H173.007C169.594 9.40983 166.285 11.1822 164.553 13.8971C162.238 17.8789 162.176 22.9491 162.012 27.764C162.542 32.6667 163.258 37.6496 168.741 39.7316L172.549 40.6612H195.095L195.153 48.9008H171.049C163.049 48.7796 155.208 44.451 152.137 38.2171C147.871 28.8569 148.063 14.9145 155.524 7.09765C161.338 1.57245 170.014 0.640803 178.797 0.844698H194.93V9.05135V9.05135Z" fill="#4A307B"/>
<path d="M49.2442 24.9794L25.0413 46.5317H0.638788L24.0321 24.9794L0 3.12671H24.5951L49.2442 24.9794Z" fill="#4A307B"/>
<path d="M81.2864 25.1142L57.4375 46.6187H32.8471L56.4418 25.1142L32.4091 3.29175H57.0007L81.2864 25.1142Z" fill="#4A307B"/>
<path d="M139.837 10.652C138.553 8.54376 136.678 6.18946 134.324 4.59631C125.501 -1.01671 111.839 -0.942242 101.613 1.90356C94.991 4.05139 89.7604 9.49031 88.5368 15.3262C86.4537 23.8713 86.9152 34.0954 91.9439 41.2476C97.1728 48.8261 108.014 50.2036 117.871 49.9786C126.944 49.7619 136.683 46.5817 140.137 39.0433C144.081 30.9085 144.089 18.8238 139.837 10.652ZM129.457 32.7621C128.309 36.3161 125.701 39.7962 121.419 41.0016C115.182 42.4756 107.664 42.2625 103.63 37.3793C99.587 31.9105 99.7197 23.5442 101.233 16.9476C102.378 13.3073 105.381 9.82671 109.862 8.78515C116.487 7.39897 124.105 8.28594 127.66 13.6745C130.722 18.982 130.973 26.6694 129.457 32.7621Z" fill="#4A307B"/>
<path d="M251.319 28.8011L237.349 0.807373H225.056L201.693 48.8126H213.887L218.88 37.4469H242.989L248.432 48.8491H261.122C257.952 42.1082 254.486 35.2857 251.319 28.8011ZM222.586 28.7395L230.688 10.4921L239.115 28.7395H222.586Z" fill="#4A307B"/>
</g>
<defs>
<clipPath id="clip0_564:214">
<rect width="263" height="50" fill="white"/>
</clipPath>
</defs>
</svg>
