<svg width="263" height="50" viewBox="0 0 263 50" fill="none" xmlns="http://www.w3.org/2000/svg">
<path d="M5.91087 20.0564C3.11963 30.9792 0.788116 40.207 0.722439 40.6779C0.656763 41.0545 2.46286 41.4312 4.7287 41.4312H8.83347L11.0665 33.0507L13.2995 24.5762H16.8131L20.294 24.482L23.0524 32.9566L25.8108 41.4312H29.7186H33.6591L30.9336 33.6157C29.4558 29.3784 28.2408 25.5178 28.2408 25.1411C28.2408 24.7645 29.7842 24.482 31.656 24.482C36.2862 24.482 36.7788 23.8229 39.1103 14.8775C40.1611 10.7344 41.0477 6.87371 41.0477 6.21458C41.0477 3.86053 39.7999 1.78897 37.8953 0.941511C36.8116 0.376539 30.3425 -0.000108957 23.4793 0.094053H11.0008L5.91087 20.0564ZM31.0978 10.9227C31.1963 11.7701 30.9992 13.2767 30.5723 14.4067C29.8827 16.3841 29.5544 16.4782 22.6583 16.7607C18.6849 16.949 15.4339 16.8549 15.4339 16.4782C15.4339 16.1957 15.828 14.4067 16.3534 12.6176L17.24 9.41609H24.0704C29.9813 9.41609 30.9007 9.60441 31.0978 10.9227Z" fill="black"/>
<path d="M158.838 4.99047L157.59 9.88689L163.731 10.3577L169.839 10.8285L165.866 26.1769L161.892 41.4312H166.096H170.266L174.272 25.8944L178.279 10.3577H184.354H190.396L191.578 5.74377C192.235 3.20139 192.76 0.941507 192.76 0.56486C192.76 0.282374 185.404 -0.000112236 176.44 -0.000112236L160.086 0.0940497L158.838 4.99047Z" fill="black"/>
<path d="M120.549 7.06204L119.17 12.2409H111.453C106.921 12.2409 103.473 12.6176 103.112 13.1826C102.488 14.1242 97.5951 31.9208 96.8398 35.8756C96.5443 37.4764 96.5771 38.2296 97.004 39.4538C97.4966 40.772 98.8101 40.9603 107.644 41.1487L117.725 41.4312L121.501 26.6477C123.57 18.4556 125.836 9.60441 126.526 6.87371L127.773 1.88313H124.851H121.895L120.549 7.06204ZM117.331 19.9622C117.167 20.6214 116.182 24.2937 115.131 27.966L113.259 34.8398H108.76C106.297 34.8398 104.064 34.4632 103.802 33.9924C103.473 33.3332 103.834 31.5441 105.443 25.9886L107.545 18.8323H112.602C116.576 18.8323 117.561 19.1148 117.331 19.9622Z" fill="black"/>
<path d="M107.02 27.9662C106.067 31.1678 106.002 31.5444 106.56 31.9211C106.921 32.1094 107.479 31.2619 107.939 29.7553C108.629 27.4954 108.826 27.3071 111.584 27.3071C113.784 27.3071 114.638 26.9305 114.934 25.8947C115.295 24.6706 114.901 24.4823 111.715 24.4823H108.103L107.02 27.9662Z" fill="black"/>
<path d="M94.8038 6.59119L93.8843 10.3577H96.8398H99.7952L100.616 7.25032C101.109 5.46124 101.47 3.76633 101.47 3.48384C101.47 3.10719 100.189 2.82471 98.613 2.82471H95.7233L94.8038 6.59119Z" fill="black"/>
<path d="M123.669 25.9887L118.48 46.2335L108.235 45.951C102.619 45.7627 97.7593 45.2919 97.4637 44.8211C96.5114 43.597 96.7741 45.8569 97.7593 47.7401C98.5474 49.2467 99.7296 49.435 108.76 49.7175L118.841 50L120.319 44.162C121.173 40.8663 121.83 37.5706 121.83 36.7232C121.83 34.6516 127.215 14.2185 128.726 10.5461C130.138 7.15631 130.368 5.64972 129.481 5.64972C129.087 5.64972 126.985 13.1827 123.669 25.9887Z" fill="black"/>
<path d="M97.6936 26.8361L92.4723 46.9867L89.0571 47.2692C86.66 47.4576 85.5435 47.9284 85.4449 48.6817C85.3464 49.6233 86.2331 49.9058 89.2213 49.9058L93.0962 49.8116L94.5083 44.3502C95.2636 41.337 95.8875 38.1355 95.8875 37.3822C95.8875 35.499 100.846 16.5724 102.488 12.1468C103.21 10.2636 103.769 8.19201 103.769 7.62704C103.769 4.23721 102.324 8.75698 97.6936 26.8361Z" fill="black"/>
<path d="M40.9164 15.2541L40.0954 18.3615L48.1408 18.644C55.5951 18.8323 56.1862 19.0206 56.0876 20.5272C55.9891 21.9396 55.2338 22.1279 47.7796 22.5988C43.1822 22.8812 39.3402 23.4462 39.0118 24.0112C38.158 25.5178 35.7936 35.4048 35.7936 37.5705C35.7936 38.6063 36.0892 39.9246 36.4176 40.4895C36.8445 41.0545 40.7522 41.4312 47.0243 41.4312L56.9743 41.337L59.7984 30.32C63.3777 16.3841 63.5419 15.6308 62.8523 13.7475C62.4254 12.4293 60.9805 12.2409 52.0485 12.2409H41.7374L40.9164 15.2541ZM53.8546 29.8492C53.8218 30.32 53.5591 31.5441 53.2307 32.6741C52.6396 34.7457 52.3769 34.8398 47.7139 34.8398C44.9883 34.8398 42.6897 34.5573 42.5911 34.2748C42.2299 33.1449 42.9852 30.32 43.7405 29.8492C45.054 29.0959 53.8546 29.1901 53.8546 29.8492Z" fill="black"/>
<path d="M65.4137 19.4914C64.3628 23.5404 62.6553 30.1317 61.6373 34.0865L59.7655 41.4312H62.7866L65.8406 41.337L67.4168 35.3106L68.9602 29.1901H76.7757C83.1791 29.1901 84.6897 28.9076 85.2808 27.7777C86.2331 25.8944 88.3347 17.514 88.3347 15.6308C88.3347 12.7118 86.7256 12.2409 77.0055 12.2409H67.3511L65.4137 19.4914ZM81.4387 20.1505C81.4387 22.3163 80.6506 22.5988 75.4622 22.5988C70.5364 22.5988 70.5036 22.5988 71.0947 20.7155C71.6529 19.0206 72.1127 18.8323 76.5787 18.8323C80.5192 18.8323 81.4387 19.1148 81.4387 20.1505Z" fill="black"/>
<path d="M89.7796 26.0828C87.8093 33.7099 86.1674 40.207 86.1017 40.6779C86.036 41.0545 87.2839 41.4312 88.893 41.4312H91.8156L95.3949 27.5893C97.3981 20.0564 99.0728 13.465 99.1056 12.9942C99.1713 12.6176 97.9235 12.2409 96.2816 12.2409H93.359L89.7796 26.0828Z" fill="black"/>
<path d="M128.791 12.9001C128.102 13.6534 122.486 35.9698 122.486 37.853C122.486 41.0545 123.57 41.4312 133.553 41.4312C141.631 41.4312 143.47 41.1487 144.028 40.0187C145.112 37.9472 150.071 18.3615 150.071 16.2899C150.071 12.3351 149.742 12.2409 139.267 12.3351C133.717 12.3351 129.021 12.6176 128.791 12.9001ZM143.175 20.1505C143.175 21.9396 140.383 32.5799 139.595 33.804C138.741 35.1223 129.809 35.2165 129.547 33.8982C129.317 32.7683 132.075 21.2805 132.929 19.8681C133.225 19.3031 135.655 18.8323 138.347 18.8323C142.255 18.8323 143.175 19.1148 143.175 20.1505Z" fill="black"/>
<path d="M133.98 24.1997C133.52 24.4822 131.681 31.1677 131.681 32.3918C131.681 33.8984 132.666 32.6743 133.422 30.1319C134.308 27.4012 134.374 27.3071 137.526 27.3071C140.547 27.3071 141.533 26.5538 141.533 24.2939C141.533 23.5406 134.899 23.4464 133.98 24.1997Z" fill="black"/>
<path d="M187.572 15.3483L186.849 18.3615L194.796 18.8323C201.594 19.2089 202.776 19.4914 202.776 20.7155C202.776 21.9396 201.561 22.2221 194.566 22.5988C190.067 22.8812 186.094 23.4462 185.798 23.917C185.24 24.6703 183.368 31.5441 182.613 35.6873C182.252 37.4763 182.285 38.1355 182.777 39.6421C183.303 41.337 183.894 41.4312 193.483 41.4312H203.597L206.716 29.4726C208.424 22.7871 209.836 16.7607 209.836 16.0074C209.836 12.4293 209.343 12.2409 198.704 12.2409H188.327L187.572 15.3483ZM200.346 30.885C199.656 34.6515 199.229 34.934 194.205 34.6515C190.166 34.369 189.312 34.0865 189.312 32.9566C189.312 30.1317 190.855 29.1901 195.814 29.1901C200.411 29.1901 200.641 29.2843 200.346 30.885Z" fill="black"/>
<path d="M211.544 15.3483L210.821 18.3615L215.09 18.644C217.422 18.7381 219.359 19.1148 219.359 19.4914C219.359 19.7739 218.177 24.5762 216.732 30.1317C215.287 35.6873 214.105 40.4895 214.105 40.8662C214.105 41.1487 215.386 41.4312 216.995 41.4312H219.884L222.741 30.1317L225.631 18.8323H229.999H234.399L235.253 15.5366L236.139 12.2409H224.219H212.299L211.544 15.3483Z" fill="black"/>
<path d="M238.931 15.5366L238.044 18.8323H246.122C253.642 18.8323 254.2 18.9264 254.102 20.433C254.003 21.9396 253.281 22.1279 245.761 22.5988C236.533 23.1637 237.157 22.5988 235.056 30.7909C233.676 36.2522 233.479 38.9829 234.432 40.4895C234.826 41.0545 238.799 41.4312 245.038 41.4312H255.021L258.075 29.5667C259.75 23.0696 261.195 17.1374 261.261 16.4782C261.359 15.8191 261.195 14.595 260.899 13.7475C260.44 12.4293 259.126 12.2409 250.063 12.2409H239.784L238.931 15.5366ZM251.869 29.6609C251.869 29.9434 251.639 31.2617 251.343 32.4858C250.818 34.8398 250.752 34.8398 245.761 34.8398C243.003 34.8398 240.671 34.4632 240.573 33.9924C240.375 33.1449 241.229 30.6967 242.017 29.8492C242.641 29.1901 251.869 29.0018 251.869 29.6609Z" fill="black"/>
<path d="M157.361 16.1957C157.131 16.8549 156.966 17.7023 156.966 18.079C156.966 18.4556 159.167 18.8323 161.827 18.8323C166.293 18.8323 166.752 18.644 167.311 16.949C167.902 15.0658 167.869 15.0658 162.845 15.0658C159.331 15.0658 157.623 15.4424 157.361 16.1957Z" fill="black"/>
<path d="M175.027 31.0734L170.956 47.0809H166.457C162.877 47.0809 161.892 47.3634 161.564 48.4933C161.203 49.7174 161.761 49.9058 166.358 49.9058H171.579L175.52 34.369L179.461 18.8323H182.449C184.945 18.8323 185.601 18.5498 186.225 16.9491L187.013 15.16L183.073 15.0658H179.099L175.027 31.0734Z" fill="black"/>
<path d="M236.205 19.7739L235.286 23.5404H230.951H226.583L223.562 35.3107L220.508 46.9867L217.192 47.0809C214.63 47.0809 213.777 47.4576 213.448 48.4933C213.087 49.7174 213.514 49.9058 217.093 49.9058L221.165 49.8116L224.022 38.6063L226.879 27.3069H230.984H235.089L236.435 22.128C237.814 16.7608 237.945 16.0075 237.453 16.0075C237.289 16.0075 236.73 17.7024 236.205 19.7739Z" fill="black"/>
<path d="M89.6482 19.6798C89.6482 20.0564 88.9258 23.2579 88.0063 26.6478C86.7256 31.45 86.1017 33.0508 85.1494 33.8041C84.4598 34.369 80.6506 34.8398 76.6771 34.8398L69.4527 34.934L67.8765 40.9604L66.3331 47.0809H63.0821C60.6193 47.0809 59.7655 47.4576 59.4371 48.4933C59.0759 49.7174 59.5028 49.9058 63.0164 49.9058H66.9899L68.5661 43.7852L70.1095 37.6647H77.8265C82.0626 37.6647 85.7405 37.2881 85.9375 36.9114C86.7256 35.499 89.9766 22.2221 89.9766 20.5272C89.9766 19.5856 89.9109 18.8323 89.8124 18.8323C89.7139 18.8323 89.6482 19.209 89.6482 19.6798Z" fill="black"/>
<path d="M151.088 21.2806C150.891 22.5989 149.447 28.6253 147.936 34.4633C145.966 42.0904 144.882 45.3861 144.258 45.8569C143.733 46.3277 138.971 46.6102 133.651 46.6102C126.361 46.6102 123.767 46.3277 123.242 45.3861C122.289 43.8795 122.257 45.2919 123.176 47.646C123.833 49.3409 124.588 49.435 133.619 49.7175C139.858 49.9059 143.766 49.6234 144.521 49.0584C145.506 48.2109 146.228 46.1394 148.56 37.194C151.581 25.6121 152.205 22.3164 151.778 20.1507C151.548 19.0207 151.417 19.3032 151.088 21.2806Z" fill="black"/>
<path d="M262.377 19.7739C262.377 20.4331 260.867 26.7419 259.028 33.9924L255.645 47.0809H245.958C238.734 46.9867 235.942 46.7043 235.056 45.7626C233.644 44.3502 233.479 45.0093 234.497 47.6459C235.154 49.3408 235.877 49.435 245.761 49.7174L256.302 49.9058L259.684 36.6289C262.87 24.0112 263.461 20.6214 262.705 19.3031C262.541 19.0206 262.377 19.209 262.377 19.7739Z" fill="black"/>
<path d="M207.275 35.3107L204.286 47.0809H194.566C186.816 47.0809 184.616 46.7984 183.73 45.7626C182.383 44.0677 182.219 45.1977 183.434 47.9284C184.288 49.8116 184.682 49.9058 194.599 49.9058H204.877L207.767 38.6063L210.657 27.3069H213.645C216.404 27.3069 217.389 26.5536 217.389 24.2937C217.389 23.9171 215.78 23.5404 213.842 23.5404H210.296L207.275 35.3107Z" fill="black"/>
<path d="M35.6294 29.1901C35.104 29.5667 33.7905 29.9434 32.7068 30.0375C31.0321 30.1317 30.8351 30.32 31.1963 31.5441C31.4918 32.4857 32.2471 32.9565 33.6591 32.9565C35.4981 32.9565 35.7608 32.6741 36.2534 30.6025C36.5489 29.2842 36.7459 28.3426 36.7131 28.3426C36.6474 28.4368 36.1877 28.8134 35.6294 29.1901Z" fill="black"/>
<path d="M11.8546 38.1355L9.78578 46.1393H5.28695C0.985146 46.1393 0 46.7043 0 49.1525C0 49.5291 2.26583 49.9058 5.05708 49.9058H10.1142L12.3143 41.4312L14.5145 32.9566H17.7326H20.9836L23.6763 41.4312L26.4019 49.9058H31.2948C35.6294 49.9058 36.1548 49.7174 35.7936 48.4933C35.4652 47.3634 34.4801 47.0809 30.9007 47.0809H26.4347L23.4793 38.6063L20.5239 30.1318H17.24H13.9234L11.8546 38.1355Z" fill="black"/>
<path d="M57.9594 45.1977C57.4011 46.9868 56.9414 47.081 47.8124 47.081C40.6865 46.9868 37.9281 46.7043 37.0415 45.7627C35.6294 44.3503 35.4652 45.0094 36.4832 47.646C37.14 49.3409 37.8953 49.435 47.6154 49.7175L58.0579 50L58.7475 47.1751C59.1416 45.6685 59.4371 44.162 59.4371 43.8795C59.4371 42.6554 58.5176 43.4087 57.9594 45.1977Z" fill="black"/>
</svg>
