<svg width="263" height="50" viewBox="0 0 263 50" fill="none" xmlns="http://www.w3.org/2000/svg">
<path d="M254.424 0.132114C250.615 0.929516 247.535 3.79291 245.308 8.57731L244.371 10.6071L242.081 10.6433H239.771L239.084 13.0718C238.709 14.4491 237.315 18.7985 235.983 22.7855C233.693 29.5997 233.547 30.1796 233.485 32.3181L233.402 34.6016L234.297 36.1239C234.817 36.9575 235.587 37.8637 236.045 38.1174C237.773 39.1323 242.581 39.0235 244.184 37.9362C244.392 37.7912 244.496 37.8637 244.413 38.0449C244.329 38.2986 245.974 38.3711 249.096 38.3349L253.883 38.2624L256.214 30.8683C257.505 26.845 259.566 20.6471 260.773 17.1675L263 10.8245L259.795 10.6433L256.61 10.4621L258.566 5.60518C259.649 2.95926 260.461 0.639553 260.357 0.494572C260.086 0.0596237 255.965 -0.157848 254.424 0.132114ZM259.42 1.14699C259.607 1.36446 259.17 2.70554 257.859 6.04013L256.027 10.6071L250.574 10.6433C247.472 10.6433 245.099 10.4983 245.099 10.3171C245.099 10.1359 245.745 8.83103 246.556 7.4537C248.263 4.44533 250.615 2.19811 252.905 1.43695C254.508 0.893272 258.983 0.712044 259.42 1.14699ZM249.054 11.8757C249.054 11.9481 248.055 14.8478 246.827 18.2911C244.267 25.6127 243.767 27.3525 244.121 27.7512C245.037 28.766 247.514 27.1712 248.659 24.8153C249.325 23.5105 252.551 14.0141 252.905 12.3468C253.051 11.8032 253.467 11.7307 257.588 11.7307H262.147L259.857 18.2549C258.608 21.8432 256.693 27.6062 255.632 31.0495L253.654 37.2837L249.387 37.3925C245.786 37.465 245.12 37.3925 245.224 36.9575C245.308 36.5588 245.037 36.5951 243.913 37.175C242.914 37.6824 241.79 37.8999 240 37.9362C236.94 38.0086 235.795 37.5012 234.63 35.6164C233.839 34.2754 233.818 34.1666 233.901 32.2819C233.984 30.6508 234.297 29.4547 236.045 24.1991C237.19 20.8283 238.543 16.6601 239.063 14.9203L240 11.7307H244.537C247.014 11.7307 249.054 11.8032 249.054 11.8757ZM251.843 14.1591C249.033 23.0755 248.201 25.1415 246.973 26.2289C246.036 27.0625 244.475 27.5699 244.475 27.0625C244.475 26.7363 247.472 17.8924 249.096 13.4342L249.72 11.7307H251.177H252.634L251.843 14.1591Z" fill="#0B653A"/>
<path d="M254.612 2.34306C251.614 2.92299 248.909 5.09771 247.202 8.25107L246.473 9.55591H250.969H255.486L256.922 5.96761L258.379 2.3793L257.442 2.16183C256.922 2.05309 256.381 1.9806 256.256 1.9806C256.131 2.01685 255.382 2.16183 254.612 2.34306Z" fill="#EE3638"/>
<path d="M239.792 15.4276C239.355 16.8774 238.231 20.357 237.294 23.1479C234.838 30.4695 234.651 31.1219 234.734 32.8617C234.775 34.094 234.921 34.4927 235.483 35.1452C237.481 37.5011 242.581 37.2112 245.62 34.6015C246.307 33.9853 246.89 33.5866 246.931 33.6591C246.973 33.7316 246.848 34.2753 246.681 34.8914C246.494 35.4714 246.348 36.0151 246.348 36.0876C246.348 36.16 247.889 36.16 249.762 36.0876L253.176 35.9788L255.09 29.9258C256.152 26.5912 257.859 21.4806 258.858 18.5085C259.878 15.5726 260.71 13.1079 260.71 12.9992C260.71 12.8904 259.128 12.8179 257.193 12.8179H253.675L251.947 18.291C250.99 21.3356 249.741 24.6702 249.2 25.7213C247.618 28.7297 245.495 30.0708 243.975 28.9834C242.685 28.0411 242.851 27.0987 245.745 18.9072C246.64 16.37 247.472 13.9416 247.597 13.5429C247.826 12.8179 247.764 12.8179 244.204 12.8179H240.604L239.792 15.4276Z" fill="#0B653A"/>
<path d="M127.851 8.28723C126.186 13.9778 123.064 23.6553 119.858 32.9704L117.985 38.4072H123.542L129.1 38.371L130.786 32.5717C132.93 25.2139 135.719 16.4787 138.341 8.86716C139.486 5.60507 140.402 2.9229 140.402 2.88666C140.402 2.88666 137.925 2.85041 134.928 2.85041H129.433L127.851 8.28723ZM139.237 4.73518C137.446 9.51958 132.742 24.054 130.453 31.9193L128.85 37.4648H123.917C121.19 37.4648 118.963 37.3924 118.963 37.3561C118.963 37.2836 120.15 33.7316 121.586 29.4546C124.666 20.357 127.268 12.238 128.663 7.27236L129.683 3.75655H134.636H139.611L139.237 4.73518Z" fill="#0B653A"/>
<path d="M128.871 9.44712C127.643 13.7603 123.979 25.1777 121.96 31.0132C121.357 32.753 120.732 34.6377 120.566 35.1814L120.254 36.1963H124.271H128.288L129.787 31.1219C131.702 24.7427 135.053 14.2315 136.531 9.9908C137.134 8.25102 137.738 6.43875 137.884 6.0038L138.133 5.2064H134.116H130.099L128.871 9.44712Z" fill="#0B653A"/>
<path d="M6.93905 6.00389C6.50194 7.45371 5.7318 9.9909 5.21144 11.6219L4.25397 14.6303H8.00059C10.082 14.6303 11.768 14.7028 11.768 14.8115C11.768 15.5727 8.35444 25.9752 5.71099 33.3692C4.69107 36.1964 3.85849 38.5886 3.85849 38.6973C3.85849 38.8061 6.2938 38.9148 9.24947 38.9148H14.6404L16.3056 33.3692C17.9083 28.0412 20.864 18.7986 21.8839 16.0076L22.3835 14.6303H26.2342H30.0849L30.7093 12.4556C31.0423 11.2595 31.7708 9.04852 32.2912 7.48996C32.8116 5.9314 33.3319 4.37285 33.436 4.04664C33.6233 3.43047 32.9781 3.39422 20.6767 3.39422H7.68837L6.93905 6.00389ZM32.7908 4.30036C32.7908 4.30036 32.1871 6.18512 31.4378 8.46859C30.6885 10.7158 30.0432 12.8905 29.96 13.253C29.8559 13.9054 29.6478 13.9417 26.026 13.6879L22.2169 13.4342L20.8848 17.385C19.1572 22.4231 16.2015 31.7744 15.2024 35.2902L14.4323 38.0087L9.56168 38.0449C6.8766 38.0811 4.69107 38.0087 4.69107 37.9362C4.69107 37.8637 5.56529 35.2902 6.64764 32.2819C8.41688 27.28 9.93635 22.7131 12.0386 16.0076L12.8088 13.5792L8.93725 13.7967C6.37705 13.9417 5.08655 13.9054 5.12818 13.6517C5.16981 13.4705 5.83588 11.2595 6.60601 8.7948L8.00059 4.30036L20.4061 4.26411C27.2124 4.26411 32.7908 4.26411 32.7908 4.30036Z" fill="#0B653A"/>
<path d="M7.45943 8.90346L6.39789 12.2743L10.1237 12.383C12.1635 12.4193 13.8495 12.5643 13.8495 12.673C13.8495 13.3617 9.22867 27.6786 7.16803 33.3692L5.96078 36.74H9.89474H13.8287L14.3282 35.1814C14.5988 34.3478 15.5563 31.3032 16.4513 28.4035C17.3255 25.5039 18.8658 20.7557 19.8441 17.8198L21.6133 12.4555L25.464 12.383L29.2939 12.2743L30.3971 8.90346L31.5003 5.56888H20.0106H8.52098L7.45943 8.90346Z" fill="#0B653A"/>
<path d="M34.9971 8.03365C33.8107 11.8032 31.3754 19.8859 27.5455 32.6806L25.693 38.9148L30.8134 38.8423L35.9338 38.7336L39.6804 26.5913C43.2605 14.9203 46.3202 4.69906 46.3202 4.30036C46.3202 4.19162 44.0515 4.11913 41.2831 4.11913H36.2252L34.9971 8.03365ZM44.8424 7.45372C44.4886 8.72231 42.2614 16.0439 39.9094 23.7642L35.6215 37.8274H31.188C28.7527 37.8274 26.7545 37.7187 26.7545 37.5737C26.7545 37.03 35.0804 9.41097 36.2668 6.0039C36.5374 5.2065 36.5998 5.2065 41.0125 5.2065H45.4877L44.8424 7.45372Z" fill="#0B653A"/>
<path d="M36.1419 9.0484C35.6632 10.5345 35.2885 11.8393 35.2885 11.948C35.2885 12.0205 36.9537 12.093 38.9935 12.093H42.6985L43.4686 9.37461C43.8849 7.8523 44.2388 6.54746 44.2388 6.47497C44.2388 6.36623 42.6152 6.29374 40.617 6.29374H36.9953L36.1419 9.0484Z" fill="#0B653A"/>
<path d="M33.0405 19.0522C32.1247 22.0968 30.5636 27.3162 29.5645 30.687L27.7536 36.74L31.4586 36.6675L35.1844 36.5588L38.6605 25.1414C40.5962 18.9072 42.1573 13.7241 42.1573 13.6516C42.1573 13.5791 40.4713 13.5429 38.4315 13.5429H34.7057L33.0405 19.0522Z" fill="#0B653A"/>
<path d="M150.705 10.8244C148.853 11.4406 146.459 12.8179 144.877 14.159C140.798 17.711 137.717 24.2352 137.53 29.7083C137.384 33.4416 138.133 35.3626 140.506 37.6098L141.131 38.1897L140.298 37.9723C139.84 37.8273 138.883 37.4286 138.154 37.0661L136.843 36.4137L136.51 37.7548C136.343 38.4797 135.781 40.7994 135.261 42.9016C134.741 45.0039 134.283 46.8886 134.22 47.1061C134.158 47.3598 135.157 47.7948 137.113 48.3747C141.068 49.4983 147.521 49.6071 150.039 48.5922C153.432 47.2149 156.055 43.9165 157.533 39.2046C160.405 29.9983 162.112 24.7427 164.131 18.8346C165.4 15.1014 166.42 11.9842 166.379 11.9118C166.337 11.8755 165.192 11.5493 163.819 11.1869C160.363 10.317 152.933 10.1357 150.705 10.8244ZM163.09 11.9118C164.401 12.238 165.505 12.5642 165.546 12.6367C165.588 12.7092 164.464 16.2612 163.028 20.5019C161.591 24.7427 159.614 30.7957 158.657 33.9128C157.678 37.0299 156.575 40.3645 156.2 41.2706C153.869 46.9249 148.894 49.3533 141.589 48.3747C139.903 48.121 137.759 47.686 136.801 47.4323C135.865 47.1424 135.074 46.8886 135.053 46.8886C134.824 46.8886 136.656 38.5884 137.051 37.7548C137.134 37.6098 137.884 37.791 138.737 38.1897C142.65 39.9295 145.98 39.8933 147.791 38.0085C148.79 36.9936 149.228 36.16 148.603 36.4862C146.834 37.3923 146.064 37.5736 144.149 37.5736C141.464 37.5736 139.986 36.7399 138.862 34.5652C137.655 32.2092 137.613 29.1646 138.758 25.1414C140.756 18.2547 145.897 12.7817 151.746 11.4043C153.723 10.9331 160.155 11.2231 163.09 11.9118Z" fill="#0B653A"/>
<path d="M151.226 12.8905C149.332 13.3617 146.397 15.1378 144.565 16.9138C142.546 18.871 140.277 22.7856 139.445 25.6852C138.966 27.425 138.841 28.3311 138.841 30.2884C138.841 32.3544 138.924 32.8256 139.361 33.6954C141.027 36.8488 145.356 37.2475 149.29 34.5653C150.123 34.0217 150.809 33.6592 150.809 33.8042C150.809 33.9492 150.456 34.964 150.018 36.0514C148.499 39.8209 146.834 40.9445 143.129 40.6183C141.797 40.5096 140.007 40.1109 139.132 39.7122L137.551 39.0235L136.76 42.2856C136.156 44.7503 136.031 45.584 136.239 45.8014C137.446 47.1063 147.042 47.5412 149.81 46.4176C153.619 44.8591 155.201 42.3581 157.761 33.9854C158.677 31.0133 160.53 25.2865 161.904 21.227C163.277 17.1675 164.339 13.7967 164.297 13.6879C164.235 13.6155 163.069 13.2892 161.716 12.9993C159.031 12.4194 153.37 12.3469 151.226 12.8905ZM155.139 19.306C155.472 19.6684 155.18 20.8645 153.911 24.0904C152.475 27.8237 150.56 29.8534 148.499 29.8534C144.253 29.8534 146.542 21.5532 151.33 19.4872C152.537 18.9798 154.743 18.871 155.139 19.306Z" fill="#0B653A"/>
<path d="M150.872 21.1183C148.062 22.7856 146.022 27.3888 147.625 28.4399C148.416 28.9473 150.143 28.2586 151.288 26.9176C152.246 25.8302 152.808 24.7066 153.807 21.9519L154.348 20.4296H153.161C152.495 20.4659 151.475 20.7558 150.872 21.1183ZM153.141 22.3144C151.954 25.5765 150.123 27.6787 148.457 27.6787C147.354 27.6787 147.292 27.425 147.875 25.7215C148.728 23.3293 150.976 21.2995 152.953 21.1908L153.557 21.1545L153.141 22.3144Z" fill="#0B653A"/>
<path d="M200.411 10.8244C196.56 11.5856 196.56 11.6218 195.998 13.1079C194.978 15.8263 191.564 23.6916 191.398 23.6916C191.023 23.6916 189.087 26.7 188.567 28.041C187.048 32.028 187.818 36.4137 190.336 38.081C191.169 38.661 191.835 38.6972 195.561 38.5522C197.913 38.4797 201.535 38.4072 203.595 38.371H207.383L208.487 34.7827C209.111 32.7892 210.443 28.6935 211.463 25.7213C213.628 19.3421 213.898 18.291 213.919 16.4425C213.94 13.6878 212.566 11.5493 210.173 10.6794C208.736 10.172 203.366 10.2445 200.411 10.8244ZM209.694 11.4044C211.338 11.9118 212.421 12.8179 213.045 14.159C213.878 15.9713 213.586 17.7836 211.442 24.1265C210.422 27.1711 209.007 31.4119 208.341 33.5503L207.113 37.4649H202.7C200.265 37.4649 198.267 37.3561 198.267 37.2474C198.267 37.1386 198.454 36.5225 198.704 35.9063C199.037 35.0364 198.933 35.1451 198.287 36.3412L197.413 37.9361L194.562 37.9723C191.273 37.9723 190.232 37.5736 189.171 35.8701C187.714 33.5503 188.088 29.2734 190.003 26.3737C191.939 23.4379 194.77 21.7706 200.14 20.4295C201.784 19.9945 203.387 19.4146 203.678 19.1609C204.178 18.6535 204.136 18.6535 203.054 18.6172C201.555 18.6172 198.287 19.4871 195.582 20.6107C194.395 21.1181 193.375 21.4444 193.313 21.3719C193.271 21.2631 193.833 19.7408 194.562 18.001C195.311 16.2613 196.102 14.304 196.352 13.6878C196.768 12.6367 196.955 12.4917 198.516 12.093C202.992 11.0057 207.446 10.7519 209.694 11.4044Z" fill="#0B653A"/>
<path d="M200.348 13.0354C199.037 13.2892 197.767 13.6154 197.538 13.7241C197.163 13.9053 194.791 19.3422 195.061 19.3422C195.124 19.3422 196.102 19.0159 197.226 18.6172C201.992 16.9137 205.031 16.95 204.886 18.726C204.782 20.1033 203.658 20.8282 200.182 21.7344C194.957 23.1479 193.188 24.0903 191.023 26.6637C188.63 29.5271 188.38 34.2753 190.524 35.9426C191.106 36.4138 191.96 36.5225 194.145 36.5588C197.33 36.5588 197.163 36.7037 198.891 33.1154L199.682 31.4844L198.433 31.5931C196.83 31.7744 196.185 31.4844 196.185 30.6145C196.185 29.3822 197.309 28.1498 199.037 27.4974C199.932 27.1349 201.181 26.6275 201.805 26.3738C202.43 26.1201 202.95 25.9388 202.992 25.9751C203.012 26.0476 202.305 28.2585 201.389 30.9407C200.473 33.5866 199.745 35.8339 199.786 35.8701C199.828 35.9426 201.368 36.0151 203.241 36.0151L206.655 36.0876L208.133 31.4119C208.965 28.8747 210.256 24.9602 211.005 22.7492C211.775 20.5383 212.483 18.1461 212.587 17.4936C213.149 13.8691 211.213 12.4555 205.864 12.4918C204.157 12.528 201.659 12.7455 200.348 13.0354Z" fill="#0B653A"/>
<path d="M199.099 28.8023C197.33 29.5997 196.497 30.5784 197.559 30.5784C199.287 30.5784 201.389 29.346 201.389 28.3311C201.389 27.8962 200.827 28.0049 199.099 28.8023Z" fill="#0B653A"/>
<path d="M56.6235 11.042C54.1049 11.6219 51.8985 12.7817 49.7546 14.594C44.551 19.0522 41.5329 26.3738 42.2406 32.898C42.4279 34.674 43.4895 36.6675 44.7591 37.6824C46.0705 38.7698 45.5085 38.806 43.2189 37.7911C42.2822 37.3924 41.4704 37.1025 41.4496 37.175C41.2415 37.6099 38.8478 47.7949 38.9311 47.9036C39.16 48.3023 43.76 49.4622 46.5908 49.8246C53.2515 50.6583 57.9556 48.5198 60.6615 43.4092C61.2235 42.3218 62.3058 39.3859 63.2633 36.1601C64.6371 31.7381 66.9059 24.8152 70.6525 13.8329L71.1104 12.528L70.5276 12.3106C67.1556 11.1145 59.3502 10.3895 56.6235 11.042ZM64.3248 11.9119C66.4896 12.1293 69.9656 12.9267 70.1737 13.2529C70.2362 13.3617 69.7575 14.9565 69.1122 16.805C66.9891 22.8942 64.304 31.0495 62.7429 36.1601C60.3909 43.8804 58.6633 46.49 54.7293 48.2298C52.6687 49.1722 45.113 49.0635 41.8451 48.1211C40.5962 47.7224 39.5555 47.3237 39.5555 47.215C39.5555 46.4538 41.6786 38.1898 41.8867 38.1898C42.0116 38.1898 42.9066 38.516 43.8641 38.9147C44.8216 39.3497 46.57 39.7484 47.7773 39.8934C50.3583 40.1471 51.961 39.5309 53.0433 37.8274L53.7094 36.7763L52.6687 37.3562C51.9402 37.7549 50.7954 37.9724 48.9221 37.9724C46.4243 38.0086 46.1329 37.9361 45.0505 37.0662C42.7609 35.1815 42.0324 31.6656 42.9899 27.2437C44.4261 20.5383 48.8596 14.8115 54.3338 12.6005C55.9574 11.9481 59.5999 11.4044 61.2027 11.5856C61.7855 11.6581 63.18 11.8031 64.3248 11.9119Z" fill="#0B653A"/>
<path d="M56.7483 13.2167C51.8569 14.2679 47.4026 18.2911 45.0297 23.7642C43.427 27.4612 42.9483 31.267 43.8017 33.6954C44.9673 36.9938 49.6506 37.8637 53.3347 35.4352C55.6868 33.9129 55.5827 33.9129 55.1664 35.254C54.6669 36.9938 53.418 39.241 52.5438 40.0022C51.2117 41.1983 49.0678 41.6332 46.7782 41.1258C45.675 40.9083 44.218 40.4371 43.5311 40.1471C42.865 39.8572 42.2614 39.7122 42.199 39.8209C42.1365 39.9297 41.7202 41.452 41.3039 43.1918L40.513 46.3451L41.9075 46.7801C44.551 47.5775 49.6298 48.0124 51.732 47.6137C57.5185 46.5626 59.4126 44.2791 62.2226 35.0728C63.1176 32.1006 64.9701 26.4101 66.323 22.3868C67.676 18.3998 68.8416 14.884 68.9041 14.5578C69.0081 14.1591 68.6126 13.9416 66.885 13.5792C64.0334 12.9993 58.6633 12.7818 56.7483 13.2167ZM60.0579 19.9946C60.0579 20.1396 59.6416 21.4807 59.142 22.9668C57.5393 27.7512 55.4578 30.3246 53.189 30.3609C50.9827 30.4333 50.3375 28.5486 51.4198 25.2865C52.1899 23.003 54.209 20.6471 55.999 19.9584C56.7275 19.6684 60.0579 19.7047 60.0579 19.9946Z" fill="#0B653A"/>
<path d="M56.2072 21.2994C54.1673 22.1693 52.2732 24.6703 51.732 27.1349C51.5447 28.0411 51.5655 28.2586 51.8777 28.6935C52.7103 29.7809 55.3746 28.5848 56.7067 26.4825C57.1022 25.7939 58.3303 22.8942 58.8923 21.2269C59.0796 20.647 57.6434 20.6832 56.2072 21.2994ZM57.9764 22.0968C57.9764 22.8217 56.5194 25.7576 55.7284 26.6275C54.0841 28.4398 52.1483 28.911 52.1483 27.4612C52.1483 26.3738 53.8759 23.6916 55.1664 22.7855C56.2904 21.9881 57.9764 21.5531 57.9764 22.0968Z" fill="#0B653A"/>
<path d="M84.9313 11.0058C84.5982 11.1508 82.0797 11.2957 79.3738 11.332L74.4615 11.3682L72.6091 17.6025C71.5891 21.0458 69.6118 27.2075 68.2172 31.2308C66.8226 35.2902 65.6778 38.6973 65.6778 38.7698C65.6778 38.8423 67.9466 38.9148 70.7357 38.9148H75.8145L76.543 36.0514C77.7086 31.5207 79.5403 26.4101 80.477 24.9965C81.7675 23.0755 83.058 22.4593 85.2227 22.7131L87.0127 22.9305L88.4906 17.1675L89.9684 11.4407L88.6779 11.042C87.2417 10.6071 85.8679 10.5708 84.9313 11.0058ZM88.0535 11.7307C89.3232 11.7669 89.3232 11.9844 87.9702 17.2038C86.9711 21.0458 86.6381 22.0244 86.3467 21.9519C86.1385 21.8794 85.2643 21.8069 84.4109 21.7707C82.5792 21.7344 81.4136 22.4956 80.0607 24.6341C79.124 26.0839 77.3131 31.122 76.21 35.3627L75.5231 37.9724L71.0063 38.0087C67.8425 38.0449 66.5104 37.9362 66.5936 37.6824C66.6353 37.465 67.7593 34.0941 69.0914 30.2159C70.4235 26.3376 72.2344 20.6833 73.1294 17.6387L74.7321 12.0931H78.9575C81.5385 12.0931 83.162 12.2381 83.162 12.4556C83.162 12.6731 83.3702 12.6731 83.724 12.4193C84.4942 11.9119 86.4924 11.4045 87.0127 11.5857C87.2417 11.6582 87.7204 11.7307 88.0535 11.7307Z" fill="#0B653A"/>
<path d="M84.6815 13.3617C84.0779 13.6516 83.1204 14.304 82.5376 14.8115C81.2887 15.9351 81.1846 15.9351 81.5801 14.9202C81.7675 14.4853 81.9132 13.9778 81.9132 13.8328C81.9132 13.6516 80.3937 13.5429 78.5204 13.5429H75.1484L74.0244 17.4211C72.7756 21.8069 71.6516 25.3589 69.362 32.1006L67.7801 36.74H71.3602H74.9611L75.752 33.9128C77.8335 26.5913 79.2489 23.3292 81.1846 21.5894C82.1005 20.7557 82.4752 20.647 84.2444 20.6108H86.2426L87.1792 16.9137C87.6996 14.884 88.0535 13.1442 87.991 13.0354C87.7829 12.6367 85.7847 12.8542 84.6815 13.3617Z" fill="#0B653A"/>
<path d="M99.5015 11.042C94.3395 12.3468 89.6146 17.8924 87.6164 24.9602C85.8471 31.3032 86.9087 36.1963 90.5304 38.3348C91.9874 39.2047 95.4427 39.5672 98.9811 39.2047C103.893 38.7335 103.373 39.2047 105.933 33.188C107.494 29.5272 108.244 28.0411 108.556 28.0411C109.076 28.0411 110.283 25.2502 110.845 22.6768C112.136 16.7325 110.304 12.2381 106.058 11.042C104.497 10.5708 101.292 10.607 99.5015 11.042ZM105.309 11.7306C106.329 11.9481 107.598 12.4555 108.16 12.8542C109.409 13.7966 110.575 15.9714 110.762 17.7474C110.97 19.7046 110.512 22.6405 109.597 25.1052L108.764 27.3162H102.311C95.5051 27.3162 95.2761 27.3887 96.2544 28.911C97.1703 30.3608 100.168 30.2883 104.976 28.7298C106.266 28.2948 107.369 28.0049 107.411 28.0774C107.453 28.1498 106.578 30.3608 105.475 32.9342C103.456 37.6099 103.435 37.6462 102.416 37.9724C101.833 38.1536 99.3142 38.2986 96.7956 38.3348C92.9033 38.3711 92.0291 38.2623 90.9883 37.7186C89.3648 36.8488 88.3241 35.5802 87.7413 33.8041C87.0544 31.6294 87.2001 27.9324 88.1367 24.8877C89.8435 19.3059 93.3404 14.6303 97.1495 12.818C99.9594 11.4769 102.395 11.1507 105.309 11.7306ZM102.936 28.4761C102.166 29.056 96.9829 29.056 96.6707 28.4761C96.4626 28.1136 97.1078 28.0411 99.9386 28.0774C102.624 28.0774 103.331 28.1861 102.936 28.4761Z" fill="#0B653A"/>
<path d="M99.1685 13.398C95.7965 14.4491 93.3196 16.5876 91.0716 20.4659C88.8861 24.1629 87.7204 28.4399 88.0327 31.4845C88.2408 33.333 89.2399 35.109 90.6137 36.0877C91.7168 36.8488 92.1123 36.9213 96.4834 36.9213C103.04 36.9213 102.769 37.03 104.372 33.2605C105.08 31.5207 105.642 30.1072 105.6 30.0347C105.559 29.9984 104.518 30.2521 103.248 30.6146C96.8372 32.4631 94.173 30.6146 95.6508 25.359C96.8164 21.1183 99.1476 18.2549 101.375 18.2549C102.998 18.2549 103.519 19.016 103.227 20.8646L103.019 22.0607L100.709 22.2419L98.3983 22.4231L97.5657 24.0542L96.7332 25.6852L102.457 25.7939C106.849 25.8664 108.264 25.7577 108.514 25.4315C109.076 24.5978 110.013 20.6833 110.013 19.1248C110.013 17.3487 109.368 15.5002 108.431 14.5578C106.807 12.9268 102.416 12.3469 99.1685 13.398Z" fill="#0B653A"/>
<path d="M99.9178 19.9222C98.44 20.8646 98.5857 21.1545 100.501 21.1545C101.978 21.1545 102.353 21.0458 102.457 20.5746C102.728 19.3423 101.396 18.9798 99.9178 19.9222Z" fill="#0B653A"/>
<path d="M167.981 14.7027C167.295 16.9499 166.087 20.647 165.317 22.9667C162.59 30.9044 162.362 32.1368 163.069 34.6377C163.61 36.5587 164.589 37.7548 166.171 38.4072C167.69 39.0597 170.521 39.0234 172.248 38.4072C172.998 38.1173 173.622 38.0085 173.664 38.1535C173.685 38.2985 175.87 38.371 178.514 38.3347L183.322 38.2623L185.091 32.5355C187.089 26.0838 188.505 21.7706 190.669 15.7176C191.481 13.4341 192.23 11.3319 192.314 11.0781C192.439 10.7519 191.398 10.6432 187.401 10.6432H182.344L180.887 15.2464C178.597 22.5317 177.619 24.9602 176.578 25.975C175.724 26.8449 173.914 27.6423 173.914 27.1349C173.914 26.6637 174.892 23.6916 177.057 17.5298C178.305 13.9778 179.325 10.9694 179.325 10.8607C179.325 10.7519 177.057 10.6432 174.288 10.6432H169.23L167.981 14.7027ZM178.118 12.8904C177.889 13.5428 176.953 16.225 176.037 18.8347C173.685 25.5038 173.185 27.3161 173.539 27.7511C173.997 28.2947 175.766 27.7511 176.744 26.7724C177.931 25.5763 178.639 23.8728 180.782 17.2399L182.552 11.7306H186.985C189.4 11.7306 191.398 11.8393 191.398 11.948C191.398 12.093 190.794 13.8328 190.087 15.8625C188.401 20.5382 186.007 27.7511 184.342 33.1879L183.03 37.4649H178.784C174.913 37.4649 174.559 37.4286 174.684 36.8487C174.788 36.3775 174.746 36.305 174.413 36.5225C172.082 38.1173 167.648 38.516 165.65 37.3199C164.172 36.45 163.298 34.7102 163.298 32.6442C163.298 30.8319 163.798 28.9472 165.713 23.3291C166.504 21.0094 167.669 17.4573 168.294 15.4276L169.438 11.7306H173.976H178.534L178.118 12.8904Z" fill="#0B653A"/>
<path d="M167.94 19.2334C166.795 22.7855 165.463 26.8087 165.005 28.2223C164.526 29.5996 164.089 31.3757 164.006 32.1006C163.902 33.3329 163.943 33.5866 164.589 34.7102C165.525 36.3413 167.045 36.885 169.959 36.6312C172.207 36.45 174.163 35.5801 175.558 34.1666C176.411 33.2967 176.536 33.4416 176.12 34.8915C175.933 35.4714 175.787 36.0151 175.787 36.0876C175.787 36.1601 177.306 36.1601 179.159 36.1238C182.177 36.0513 182.572 35.9788 182.781 35.3989C182.906 35.0364 183.696 32.5355 184.529 29.8533C185.362 27.1712 186.944 22.3505 188.047 19.1609C189.15 15.9713 190.087 13.2529 190.107 13.0717C190.149 12.9267 188.588 12.818 186.652 12.818H183.093L181.261 18.4723C180.262 21.5894 179.076 24.8877 178.618 25.7576C177.515 27.9323 175.995 29.2372 174.517 29.2734C172.019 29.3459 172.04 27.8598 174.601 20.4295C175.662 17.3487 176.703 14.3765 176.911 13.7966L177.286 12.818H173.664H170.021L167.94 19.2334Z" fill="#0B653A"/>
<path d="M218.124 15.7902C217.208 18.6536 216.459 21.082 216.417 21.227C216.375 21.4082 217.312 21.5169 218.498 21.5169H220.642L217.166 24.6703L213.69 27.8237L212.067 33.0793L210.443 38.3711L219.789 38.2986L229.114 38.1899L230.613 33.9491C231.424 31.5932 232.278 29.201 232.507 28.6211L232.902 27.5699L230.467 27.7874C229.135 27.8961 228.031 27.8961 228.031 27.7512C228.031 27.6062 229.509 26.1926 231.32 24.6341L234.609 21.8069L235.629 18.5086C236.212 16.6963 237.023 14.2678 237.461 13.108C237.877 11.9481 238.231 10.897 238.231 10.8245C238.231 10.7158 234.068 10.6433 228.989 10.6433H219.747L218.124 15.7902ZM237.023 12.7093C236.815 13.2892 236.087 15.3915 235.441 17.4574L234.255 21.1545L230.051 24.8878L225.846 28.5848L228.822 28.6935C230.467 28.7298 231.778 28.911 231.736 29.056C231.695 29.201 231.029 31.1582 230.259 33.4055L228.843 37.465H220.101C215.314 37.465 211.38 37.3562 211.38 37.175C211.401 37.03 211.983 35.0365 212.691 32.753L214.002 28.5848L216.334 26.4101C217.603 25.214 219.56 23.3655 220.684 22.3143L222.724 20.3933L219.976 20.5746C218.457 20.6471 217.208 20.6471 217.208 20.5746C217.208 20.4658 217.832 18.4361 218.582 16.0801L219.955 11.7307H228.698H237.419L237.023 12.7093Z" fill="#0B653A"/>
<path d="M219.456 16.08L218.457 19.3058L222.266 19.1246L226.054 18.9434L223.765 21.0456C222.516 22.2417 219.935 24.5977 218.041 26.3374L214.585 29.4546L213.607 32.6804C213.066 34.4564 212.629 35.9787 212.629 36.0512C212.629 36.1237 216.167 36.16 220.476 36.1237L228.344 36.0512L228.989 34.3114C229.343 33.3691 229.822 31.9917 230.051 31.3031L230.508 30.0345L226.949 30.1795C224.805 30.252 223.327 30.1432 223.203 29.9257C223.078 29.7083 224.847 27.9685 228.385 24.8514L233.756 20.1032L234.796 16.8049C235.379 14.9564 235.879 13.3253 235.899 13.1441C235.941 12.9629 232.694 12.8179 228.198 12.8179H220.434L219.456 16.08Z" fill="#0B653A"/>
<path d="M74.1077 41.0894C68.3837 41.1982 63.5755 41.4156 63.4298 41.5606C63.3049 41.7418 63.1801 42.2855 63.1801 42.793V43.7354L64.9077 43.4816C65.8443 43.3729 81.4969 43.1917 99.7096 43.0467C129.537 42.8292 132.826 42.7567 133.075 42.2493C133.783 40.6545 134.637 40.727 108.931 40.7995C95.5051 40.8357 79.8317 40.9444 74.1077 41.0894Z" fill="#EE3638"/>
<path d="M158.49 41.7057C158.386 42.2132 158.323 42.6844 158.365 42.7569C158.407 42.8293 166.941 43.0468 177.369 43.2643C208.445 43.8442 228.094 44.6779 251.115 46.3814C258.317 46.8888 258.92 46.8888 259.233 46.3452C259.836 45.2578 259.087 44.8591 256.09 44.5691C237.107 42.9743 204.948 41.6695 167.086 40.9446L158.698 40.7996L158.49 41.7057Z" fill="#EE3638"/>
<path d="M29.0441 42.9379C21.3636 43.4816 10.2069 44.3877 5.33633 44.8589C0.340834 45.3664 -0.325233 45.6201 0.111874 46.8887C0.320019 47.5048 0.299204 47.5048 8.64585 46.7074C15.702 46.055 27.379 45.1851 33.5817 44.8589C38.2234 44.6052 38.4107 44.5327 38.6813 43.1554C38.8062 42.5754 38.598 42.5392 35.9546 42.6117C34.3935 42.6117 31.2713 42.7929 29.0441 42.9379Z" fill="#EE3638"/>
</svg>
