<svg width="292" height="35" viewBox="0 0 292 35" fill="none" xmlns="http://www.w3.org/2000/svg">
<path d="M159.4 1.99991C159.3 2.79991 159 4.29991 158.5 5.19991C157.9 6.79991 158.5 6.99991 164.4 6.99991C168 6.99991 171 7.19991 171 7.49991C171 7.79991 169.3 11.4999 167.1 15.7999C165 19.9999 162.9 24.4999 162.5 25.7999C161.8 28.0999 162 28.0999 168.5 27.7999L175.2 27.4999L179.7 16.6999L184.3 5.99991H191.5C198.7 5.99991 200 5.39991 200 1.99991C200 1.49991 190.9 0.899908 179.7 0.799908C162.2 0.499908 159.4 0.699907 159.4 1.99991Z" fill="#0B653A"/>
<path d="M229 0.900015L220.5 1.50002L204.7 14.5L188.9 27.5L195.5 27.8C202.1 28.1 202.2 28 206.6 24L211 20H219.6H228.3L227.7 24.7C227.4 27.4 227.3 29 227.6 28.5C227.8 27.9 230.9 27.6 234.9 27.8L241.7 28.2L239.4 15.8C238 9.00002 237.2 2.70001 237.4 1.70001C237.6 0.800014 237.7 0.100016 237.7 0.200014C237.6 0.300014 233.7 0.600016 229 0.900015ZM227 10.5V14H222.3H217.5L221.5 10.5C223.7 8.60002 225.8 7.10002 226.3 7.00002C226.7 7.00002 227 8.60002 227 10.5Z" fill="#0B653A"/>
<path d="M87.7 2.10002C85.6 2.60002 82.5 3.80002 80.7 4.70002L77.5 6.50002L83.9 6.80002C89.3 7.10002 90.6 6.80002 92.6 4.90002C96.8 1.00002 95.5 0.300017 87.7 2.10002Z" fill="#EE3638"/>
<path d="M2 2.5C2 2.8 4.3 8.7 7.1 15.5L12.3 28H22.4H32.6L53.8 15.2L75 2.5L66 2.2L57 1.9L42.3 11C34.2 15.9 27.3 19.7 26.9 19.3C26.6 18.8 25 14.8 23.5 10.2L20.8 2H11.4C6.2 2 2 2.2 2 2.5Z" fill="#0B653A"/>
<path d="M267.1 3.6C256.9 6.3 249.6 12.6 249.6 18.6C249.6 25.2 255.7 28 270.2 28C278 28 279 27.8 280.4 25.8C281.3 24.6 282 23.3 282 23C282 22.7 279 22.7 275.4 22.8C264.5 23.4 259.6 19.7 263.7 14.1C267.4 9.2 271.7 7.6 280.5 7.5C288.6 7.5 289.7 7 289.9 3.2C290 1.5 274.1 1.7 267.1 3.6Z" fill="#0B653A"/>
<path d="M71.6 15.1999C69.4 18.6999 66.8 22.9999 65.7 24.7999L63.8 28.0999L71.5 27.7999L79.3 27.4999L84.1 18.9999C86.8 14.2999 89 10.1999 89 9.69985C89 9.29985 86 8.99985 82.2 8.99985H75.5L71.6 15.1999Z" fill="#0B653A"/>
<path d="M101.6 10.1999C101.8 10.5999 101.6 11.0999 101 11.4999C98.4 13.0999 100.6 13.5999 107.3 12.7999C114.7 11.8999 121 12.3999 121 13.9999C121 15.5999 119.3 15.9999 107.4 17.5999C95.5 19.0999 90.4 20.8999 89.3 23.6999C88.2 26.5999 91.8 27.9999 100.6 27.9999C106.4 27.9999 109.1 27.5999 109.9 26.5999C110.9 25.3999 110.8 25.2999 109.2 25.6999C106.9 26.2999 102.7 24.2999 103.5 22.9999C103.8 22.4999 106.6 21.5999 109.8 20.9999C112.9 20.3999 116.3 19.5999 117.3 19.3999C118.4 18.9999 119 19.3999 119 20.4999C119 21.4999 118.5 21.7999 117.8 21.3999C117.1 20.9999 117 21.0999 117.4 21.7999C117.8 22.3999 117.3 24.0999 116.4 25.4999L114.7 28.0999L122.1 27.7999L129.5 27.4999L133.2 20.4999C135.3 16.5999 137 13.1999 137 12.7999C137.1 10.3999 131.6 9.59985 116.8 9.49985C108.2 9.49985 101.4 9.79985 101.6 10.1999Z" fill="#0B653A"/>
<path d="M23.3 32.6999C7 32.8999 0 33.3999 0 34.1999C0 34.8999 3 35.0999 10.3 34.5999C29.8 33.4999 168.8 32.8999 229.5 33.7999C263.1 34.1999 290.7 34.4999 290.9 34.2999C291.1 34.0999 291 33.6999 290.7 33.2999C290 32.5999 62.7 32.0999 23.3 32.6999Z" fill="#EE3638"/>
</svg>
