<svg width="64" height="64" viewBox="0 0 64 64" fill="none" xmlns="http://www.w3.org/2000/svg">
<path d="M56.0015 24.9996H48.9005L53.9216 19.9785C56.6555 17.2446 56.6555 12.8122 53.9216 10.0784C51.1879 7.34461 46.7554 7.34461 44.0215 10.0784L39.0004 15.0996V7.99849C39.0004 4.13224 35.8661 0.997986 31.9999 0.997986C28.1336 0.997986 24.9995 4.13211 24.9995 7.99849V15.0995L19.9784 10.0782C17.2445 7.34449 12.8121 7.34449 10.0782 10.0782C7.34436 12.8121 7.34436 17.2445 10.0782 19.9784L15.0994 24.9995H7.99849C4.13224 24.9995 0.997986 28.1336 0.997986 31.9999C0.997986 35.8661 4.13224 39.0004 7.99849 39.0004H15.0994L10.0784 44.0215C7.34449 46.7552 7.34449 51.1877 10.0784 53.9216C12.8121 56.6555 17.2446 56.6555 19.9785 53.9216L24.9996 48.9005V56.0015C24.9996 59.8677 28.1339 63.002 32 63.002C35.8661 63.002 39.0005 59.8677 39.0005 56.0015V48.9005L44.0216 53.9216C46.7555 56.6555 51.1879 56.6555 53.9217 53.9216C56.6556 51.1879 56.6556 46.7554 53.9217 44.0215L48.9007 39.0004H56.0016C59.8679 39.0004 63.0021 35.8661 63.0021 31.9999C63.002 28.1337 59.8677 24.9996 56.0015 24.9996Z" fill="#DCF8E1"/>
<path d="M10.0489 53.9511C7.31501 51.2173 7.31501 46.7849 10.0489 44.051L19.949 34.1509C22.6829 31.417 27.1153 31.417 29.8491 34.1509C32.583 36.8847 32.583 41.3171 29.8491 44.051L19.949 53.9511C17.2151 56.685 12.7828 56.685 10.0489 53.9511Z" fill="#00ABD5"/>
<path d="M32 63.002C28.1338 63.002 24.9995 59.8677 24.9995 56.0015V42.0006C24.9995 38.1344 28.1338 35.0001 31.9999 35.0001C35.8661 35.0001 39.0003 38.1344 39.0003 42.0006V56.0015C39.0005 59.8677 35.8663 63.002 32 63.002Z" fill="#BEF2F5"/>
<path d="M0.997986 32C0.997986 28.1338 4.13224 24.9995 7.99848 24.9995H21.9994C25.8656 24.9995 28.9999 28.1338 28.9999 31.9999C28.9999 35.8661 25.8656 39.0003 21.9994 39.0003H7.99848C4.13224 39.0005 0.997986 35.8663 0.997986 32Z" fill="#BEF2F5"/>
<path d="M34.1509 29.8491C31.417 27.1153 31.417 22.6829 34.1509 19.949L44.051 10.0489C46.7849 7.31501 51.2173 7.31501 53.9511 10.0489C56.685 12.7828 56.685 17.2151 53.9511 19.949L44.051 29.8491C41.3171 32.583 36.8847 32.583 34.1509 29.8491Z" fill="#DCF8E1"/>
<path d="M63.002 32C63.002 28.1337 59.8677 24.9996 56.0015 24.9996H48.9005L53.9216 19.9785C56.6555 17.2446 56.6555 12.8122 53.9216 10.0784C51.1879 7.34461 46.7554 7.34461 44.0215 10.0784L39.0004 15.0996V7.99849C39.0004 4.13224 35.8661 0.997986 31.9999 0.997986C30.9539 0.997986 29.9651 1.23374 29.0739 1.64499C29.3704 2.98999 30.5657 3.99811 31.9999 3.99811C34.2056 3.99811 36.0001 5.79261 36.0001 7.99836V17.999L39.0002 15.0994L39.1716 19.1705L46.1427 12.1994C47.7034 10.6402 50.2401 10.6411 51.7999 12.1994C53.3595 13.7595 53.3595 16.2972 51.8004 17.857L44.6417 25.0156L48.9004 24.9995L46.0007 27.9996H56.0014C58.2071 27.9996 60.0016 29.7941 60.0016 31.9999C60.0016 33.434 61.0097 34.6294 62.3547 34.9259C62.7662 34.0347 63.002 33.046 63.002 32Z" fill="white"/>
<path d="M32 29.9979C27.5895 29.9979 24.0015 26.4097 24.0015 21.9994V7.9985C24.0015 3.58812 27.5895 0 32 0C36.4105 0 39.9985 3.58812 39.9985 7.9985V21.9994C39.9985 26.4097 36.4105 29.9979 32 29.9979ZM32 1.99612C28.6903 1.99612 25.9975 4.68875 25.9975 7.9985V21.9994C25.9975 25.3091 28.6903 28.0017 32 28.0017C35.3098 28.0017 38.0025 25.3091 38.0025 21.9994V7.9985C38.0025 4.68875 35.3098 1.99612 32 1.99612Z" fill="#00BEBE"/>
<path d="M32 64C27.5895 64 24.0015 60.4119 24.0015 56.0015V42.0006C24.0015 37.5903 27.5897 34.0021 32 34.0021C36.4104 34.0021 39.9985 37.5903 39.9985 42.0006V56.0015C39.9985 60.4119 36.4105 64 32 64ZM32 35.9983C28.6903 35.9983 25.9975 38.6909 25.9975 42.0006V56.0015C25.9975 59.3113 28.6903 62.0039 32 62.0039C35.3098 62.0039 38.0025 59.3113 38.0025 56.0015V42.0006C38.0025 38.6909 35.3098 35.9983 32 35.9983Z" fill="#00BEBE"/>
<path d="M56.0015 39.9985H42.0006C37.5903 39.9985 34.0023 36.4104 34.0023 32C34.0023 27.5897 37.5904 24.0015 42.0006 24.0015H56.0015C60.4119 24.0015 64 27.5897 64 32C64 36.4104 60.4119 39.9985 56.0015 39.9985ZM42.0006 25.9977C38.6909 25.9977 35.9983 28.6903 35.9983 32C35.9983 35.3098 38.6909 38.0024 42.0006 38.0024H56.0015C59.3113 38.0024 62.004 35.3098 62.004 32C62.004 28.6903 59.3113 25.9977 56.0015 25.9977H42.0006Z" fill="#00BEBE"/>
<path d="M21.9994 39.9985H7.9985C3.58812 39.9985 0 36.4104 0 32C0 27.5897 3.58812 24.0015 7.9985 24.0015H21.9994C26.4097 24.0015 29.9977 27.5897 29.9977 32C29.9977 36.4104 26.4097 39.9985 21.9994 39.9985ZM7.9985 25.9977C4.68875 25.9977 1.996 28.6903 1.996 32C1.996 35.3098 4.68875 38.0024 7.9985 38.0024H21.9994C25.3091 38.0024 28.0016 35.3098 28.0016 32C28.0016 28.6903 25.309 25.9977 21.9994 25.9977H7.9985Z" fill="#00BEBE"/>
<path d="M39.0715 32.927C36.935 32.927 34.9264 32.095 33.4156 30.5843C31.9049 29.0737 31.0729 27.065 31.0729 24.9285C31.0729 22.792 31.9049 20.7834 33.4156 19.2728L43.3157 9.37266C44.8265 7.86191 46.8351 7.02991 48.9716 7.02991C51.1081 7.02991 53.1167 7.86191 54.6275 9.37266C56.1382 10.8834 56.9702 12.8919 56.9702 15.0284C56.9702 17.1649 56.1382 19.1735 54.6275 20.6843L44.7274 30.5844C43.2166 32.095 41.208 32.927 39.0715 32.927ZM48.9716 9.02603C47.3684 9.02603 45.861 9.65041 44.7274 10.784L34.8273 20.6842C33.6935 21.8178 33.0691 23.3252 33.0691 24.9284C33.0691 26.5317 33.6935 28.039 34.8273 29.1727V29.1728C35.9609 30.3064 37.4682 30.9308 39.0715 30.9308C40.6747 30.9308 42.1821 30.3064 43.3157 29.1728L53.2159 19.2727C54.3496 18.1389 54.974 16.6317 54.974 15.0283C54.974 13.425 54.3496 11.9177 53.2159 10.784C52.0822 9.65041 50.5749 9.02603 48.9716 9.02603Z" fill="#00BEBE"/>
<path d="M15.0283 56.9665C12.9801 56.9665 10.9319 56.1869 9.37247 54.6275C7.86172 53.1167 7.02972 51.1081 7.02972 48.9717C7.02972 46.8352 7.86172 44.8266 9.37247 43.3159L19.2726 33.4157C20.7834 31.905 22.792 31.073 24.9285 31.073C27.065 31.073 29.0736 31.905 30.5844 33.4157C32.0951 34.9265 32.9271 36.9351 32.9271 39.0715C32.9271 41.208 32.0951 43.2165 30.5844 44.7272L20.6842 54.6274C19.1249 56.1867 17.0766 56.9665 15.0283 56.9665ZM24.9285 33.0691C23.3251 33.0691 21.8179 33.6935 20.6842 34.8271L10.7841 44.7272C9.65035 45.861 9.02597 47.3684 9.02597 48.9716C9.02597 50.575 9.65035 52.0822 10.7841 53.216C13.1242 55.5562 16.9325 55.5562 19.2726 53.216L29.1727 43.3159C30.3065 42.1821 30.9309 40.6747 30.9309 39.0715C30.9309 37.4682 30.3065 35.9609 29.1727 34.8271C28.0391 33.6935 26.5317 33.0691 24.9285 33.0691Z" fill="#00BEBE"/>
<path d="M48.9716 56.9701C46.8351 56.9701 44.8265 56.1382 43.3157 54.6275L33.4156 44.7274C31.9049 43.2166 31.0729 41.208 31.0729 39.0716C31.0729 36.9351 31.9049 34.9266 33.4156 33.4159C34.9264 31.9051 36.935 31.0731 39.0715 31.0731C41.208 31.0731 43.2166 31.9051 44.7274 33.4159L54.6275 43.316C56.1382 44.8267 56.9702 46.8354 56.9702 48.9717C56.9702 51.1082 56.1382 53.1169 54.6274 54.6276C53.1167 56.1381 51.1081 56.9701 48.9716 56.9701ZM39.0715 33.0691C37.4681 33.0691 35.9609 33.6935 34.8273 34.8271C33.6935 35.9609 33.0691 37.4682 33.0691 39.0715C33.0691 40.6747 33.6935 42.1821 34.8273 43.3159L44.7274 53.216C47.0675 55.5562 50.8757 55.5562 53.2159 53.216C54.3496 52.0822 54.974 50.5749 54.974 48.9716C54.974 47.3682 54.3496 45.861 53.2159 44.7272L43.3157 34.8271C42.1821 33.6935 40.6749 33.0691 39.0715 33.0691Z" fill="#00BEBE"/>
<path d="M24.9285 32.927C22.792 32.927 20.7834 32.095 19.2726 30.5842L9.37247 20.6841C7.86172 19.1734 7.02972 17.1647 7.02972 15.0282C7.02972 12.8917 7.86172 10.8831 9.37247 9.37247C10.8832 7.86185 12.8918 7.02972 15.0283 7.02972C17.1649 7.02972 19.1735 7.86172 20.6842 9.37247L30.5844 19.2726C32.0951 20.7834 32.9271 22.7919 32.9271 24.9284C32.9271 27.0649 32.0951 29.0735 30.5844 30.5841C29.0736 32.095 27.065 32.927 24.9285 32.927ZM15.0283 9.02597C13.4251 9.02597 11.9177 9.65035 10.7841 10.784C9.65035 11.9177 9.02597 13.425 9.02597 15.0282C9.02597 16.6316 9.65035 18.1389 10.7841 19.2726L20.6842 29.1727C21.8179 30.3064 23.3252 30.9307 24.9285 30.9307C26.5317 30.9307 28.0391 30.3064 29.1727 29.1727C30.3065 28.039 30.9309 26.5317 30.9309 24.9284C30.9309 23.3251 30.3065 21.8177 29.1727 20.6841L19.2726 10.784C18.139 9.65035 16.6317 9.02597 15.0283 9.02597Z" fill="#00BEBE"/>
<path d="M32 34.0022C31.7135 34.0022 31.4307 34.018 31.152 34.0475C30.9747 33.8289 30.7861 33.6175 30.5844 33.4158C30.0121 32.8435 29.3682 32.3692 28.6731 32C29.3681 31.6309 30.0121 31.1565 30.5844 30.5843C32.0951 29.0735 32.9271 27.065 32.9271 24.9285C32.9271 22.792 32.0951 20.7834 30.5844 19.2728L20.6842 9.37266C19.1735 7.86191 17.1649 7.02991 15.0284 7.02991C12.8919 7.02991 10.8832 7.86191 9.37248 9.37253C7.86172 10.8833 7.02972 12.8919 7.02972 15.0283C7.02972 17.1648 7.86172 19.1734 9.37248 20.6842L19.2726 30.5843C19.8449 31.1565 20.4887 31.6309 21.1837 32C20.4887 32.3692 19.8449 32.8435 19.2726 33.4158L9.37248 43.3159C7.86172 44.8267 7.02972 46.8353 7.02972 48.9718C7.02972 51.1083 7.86172 53.1168 9.37248 54.6275C10.9319 56.1869 12.9801 56.9665 15.0284 56.9665C17.0766 56.9665 19.1249 56.1869 20.6842 54.6275L24.0015 51.3103V56.0017C24.0015 60.4119 27.5895 64 32 64C36.4105 64 39.9985 60.4119 39.9985 56.0015V42.0007C39.9985 37.5903 36.4105 34.0022 32 34.0022ZM30.9309 39.0715C30.9309 40.6748 30.3065 42.1822 29.1727 43.3159L25.9975 46.4912V42.0007C25.9975 39.3045 27.7845 37.0184 30.236 36.2632C30.6899 37.118 30.9309 38.0763 30.9309 39.0715ZM10.7841 19.2728C9.65035 18.139 9.02597 16.6318 9.02597 15.0284C9.02597 13.4252 9.65035 11.9178 10.7841 10.7842C11.9177 9.65041 13.4251 9.02616 15.0284 9.02616C16.6316 9.02616 18.139 9.65053 19.2726 10.7842L29.1727 20.6843C30.3065 21.8179 30.9309 23.3253 30.9309 24.9285C30.9309 26.5318 30.3065 28.0392 29.1727 29.1729C28.0391 30.3065 26.5317 30.9309 24.9285 30.9309C23.3251 30.9309 21.8179 30.3065 20.6842 29.1729L10.7841 19.2728ZM19.2726 53.216C16.9325 55.5563 13.1242 55.5563 10.7841 53.216C9.65035 52.0823 9.02597 50.575 9.02597 48.9717C9.02597 47.3684 9.65035 45.861 10.7841 44.7273L20.6842 34.8272C21.8179 33.6934 23.3252 33.0692 24.9285 33.0692C26.4262 33.0692 27.84 33.6143 28.9439 34.6103C26.0456 35.8133 24.0015 38.6723 24.0015 42.0007V48.4872L19.2726 53.216ZM38.0025 56.0015C38.0025 59.3113 35.3097 62.0039 32 62.0039C28.6902 62.0039 25.9975 59.3113 25.9975 56.0015V49.314L30.5842 44.7273C32.095 43.2165 32.927 41.2079 32.927 39.0715C32.927 38.0025 32.7186 36.9657 32.3214 36.007C35.4822 36.1747 38.0025 38.7988 38.0025 42.0007V56.0015Z" fill="#00ABD5"/>
<path d="M56.0015 24.0015H51.3102L54.6275 20.6841C56.1383 19.1734 56.9703 17.1647 56.9703 15.0282C56.9703 12.8918 56.1383 10.8831 54.6275 9.3725C53.1168 7.86175 51.1082 7.02975 48.9717 7.02975C46.8352 7.02975 44.8265 7.86175 43.3158 9.3725L39.9985 12.6897V7.9985C39.9985 3.58812 36.4105 0 32 0C27.5895 0 24.0015 3.58812 24.0015 7.9985V21.9994C24.0015 26.4097 27.5897 29.9979 32 29.9979C32.2865 29.9979 32.5693 29.982 32.848 29.9525C33.0253 30.1711 33.2139 30.3825 33.4158 30.5842C33.6177 30.7861 33.8289 30.9749 34.0477 31.152C34.0182 31.4307 34.0023 31.7135 34.0023 32C34.0023 36.4104 37.5904 39.9985 42.0007 39.9985H56.0015C60.4119 39.9985 64 36.4104 64 32C64 27.5896 60.4119 24.0015 56.0015 24.0015ZM44.7274 10.784C45.861 9.65025 47.3684 9.026 48.9717 9.026C50.575 9.026 52.0823 9.65038 53.2159 10.7841C54.3497 11.9179 54.974 13.4251 54.974 15.0284C54.974 16.6318 54.3497 18.139 53.2159 19.2728L48.4872 24.0016H42.0007C41.1805 24.0016 40.3892 24.1261 39.6438 24.3564C39.874 23.611 39.9985 22.8195 39.9985 21.9995V15.513L44.7274 10.784ZM33.0692 24.9285C33.0692 23.3252 33.6935 21.8179 34.8273 20.6842L38.0025 17.509V21.9995C38.0025 24.6956 36.2155 26.9818 33.764 27.737C33.3102 26.882 33.0692 25.9237 33.0692 24.9285ZM42.0007 25.9976H46.491L43.3158 29.1729C42.1822 30.3065 40.6748 30.9309 39.0715 30.9309C38.0762 30.9309 37.118 30.6899 36.2632 30.2361C37.0184 27.7845 39.3045 25.9976 42.0007 25.9976ZM25.9975 21.9994V7.9985C25.9975 4.68875 28.6903 1.99612 32 1.99612C35.3098 1.99612 38.0025 4.68875 38.0025 7.9985V14.686L33.4158 19.2728C31.905 20.7835 31.073 22.792 31.073 24.9285C31.073 25.9975 31.2814 27.0344 31.6788 27.993C28.5179 27.8254 25.9975 25.2013 25.9975 21.9994ZM56.0015 38.0024H42.0007C38.7988 38.0024 36.1748 35.4823 36.0072 32.3214C36.9658 32.7188 38.0027 32.927 39.0715 32.927C41.208 32.927 43.2167 32.095 44.7274 30.5842L49.314 25.9976H56.0015C59.3113 25.9976 62.004 28.6903 62.004 32C62.0039 35.3097 59.3112 38.0024 56.0015 38.0024Z" fill="#00BEBE"/>
<path d="M32 35.9983C29.7954 35.9983 28.0018 34.2046 28.0018 32C28.0018 29.7954 29.7954 28.0018 32 28.0018C34.2046 28.0018 35.9983 29.7954 35.9983 32C35.9983 34.2046 34.2046 35.9983 32 35.9983ZM32 29.9979C30.896 29.9979 29.9978 30.896 29.9978 32C29.9978 33.104 30.8959 34.0021 32 34.0021C33.1041 34.0021 34.0021 33.104 34.0021 32C34.0021 30.896 33.104 29.9979 32 29.9979Z" fill="#00BEBE"/>
<path d="M63.002 32.998C62.4509 32.998 62.004 32.5511 62.004 32C62.004 28.6903 59.3113 25.9976 56.0015 25.9976H48.9006C48.497 25.9976 48.1331 25.7545 47.9786 25.3815C47.8241 25.0085 47.9094 24.5793 48.1949 24.2939L53.216 19.2728C54.3498 18.139 54.9741 16.6316 54.9741 15.0284C54.9741 13.425 54.3498 11.9178 53.216 10.784C50.8758 8.44363 47.0678 8.44363 44.7275 10.784L39.7064 15.8051C39.4209 16.0906 38.9919 16.176 38.6186 16.0215C38.2458 15.867 38.0025 15.5031 38.0025 15.0994V7.9985C38.0025 4.68875 35.3098 1.99612 32 1.99612C31.4489 1.99612 31.002 1.54925 31.002 0.998125C31.002 0.447 31.4489 0 32 0C36.4105 0 39.9985 3.58812 39.9985 7.9985V12.69L43.3158 9.37263C46.4344 6.254 51.5088 6.254 54.6274 9.37263C56.1381 10.8834 56.9701 12.892 56.9701 15.0284C56.9701 17.1649 56.1381 19.1735 54.6274 20.6842L51.31 24.0016H56.0014C60.4119 24.0015 64 27.5896 64 32C64 32.5513 63.5531 32.998 63.002 32.998Z" fill="#8CEBAF"/>
<path d="M21.9994 39.9985H7.9985C3.58812 39.9985 0 36.4104 0 32C0 27.5897 3.58812 24.0015 7.9985 24.0015H21.9994C26.4097 24.0015 29.9977 27.5897 29.9977 32C29.9977 36.4104 26.4097 39.9985 21.9994 39.9985ZM7.9985 25.9977C4.68875 25.9977 1.996 28.6903 1.996 32C1.996 35.3098 4.68875 38.0024 7.9985 38.0024H21.9994C25.3091 38.0024 28.0016 35.3098 28.0016 32C28.0016 28.6903 25.309 25.9977 21.9994 25.9977H7.9985Z" fill="#9C89C2"/>
<path d="M48.9716 56.9701C46.8351 56.9701 44.8265 56.1382 43.3157 54.6275L33.4156 44.7274C31.9049 43.2166 31.0729 41.208 31.0729 39.0716C31.0729 36.9351 31.9049 34.9266 33.4156 33.4159C34.9264 31.9051 36.935 31.0731 39.0715 31.0731C41.208 31.0731 43.2166 31.9051 44.7274 33.4159L54.6275 43.316C56.1382 44.8267 56.9702 46.8354 56.9702 48.9717C56.9702 51.1082 56.1382 53.1169 54.6274 54.6276C53.1167 56.1381 51.1081 56.9701 48.9716 56.9701ZM39.0715 33.0691C37.4681 33.0691 35.9609 33.6935 34.8273 34.8271C33.6935 35.9609 33.0691 37.4682 33.0691 39.0715C33.0691 40.6747 33.6935 42.1821 34.8273 43.3159L44.7274 53.216C47.0675 55.5562 50.8757 55.5562 53.2159 53.216C54.3496 52.0822 54.974 50.5749 54.974 48.9716C54.974 47.3682 54.3496 45.861 53.2159 44.7272L43.3157 34.8271C42.1821 33.6935 40.6749 33.0691 39.0715 33.0691Z" fill="#9C89C2"/>
<path d="M32 64C27.5895 64 24.0015 60.4119 24.0015 56.0015V51.31L20.6842 54.6274C19.1734 56.1381 17.1649 56.9701 15.0284 56.9701C12.8919 56.9701 10.8833 56.1381 9.3725 54.6274C7.86175 53.1168 7.02975 51.1081 7.02975 48.9716C7.02975 46.8351 7.86175 44.8265 9.37263 43.3158L12.6899 39.9984H7.9985C3.58812 39.9985 0 36.4104 0 32C0 31.4488 0.446875 31.002 0.998 31.002C1.54912 31.002 1.996 31.4489 1.996 32C1.996 35.3098 4.68875 38.0024 7.9985 38.0024H15.0994C15.503 38.0024 15.8669 38.2455 16.0214 38.6185C16.1759 38.9914 16.0906 39.4208 15.8051 39.7061L10.784 44.7273C9.65025 45.861 9.02588 47.3683 9.02588 48.9716C9.02588 50.575 9.65025 52.0823 10.7839 53.216C11.9176 54.3498 13.425 54.974 15.0282 54.974C16.6315 54.974 18.1389 54.3496 19.2725 53.216L24.2936 48.1949C24.579 47.9095 25.0082 47.8239 25.3814 47.9785C25.7542 48.133 25.9975 48.4969 25.9975 48.9006V56.0016C25.9975 59.3114 28.6903 62.004 32 62.004C32.5511 62.004 32.998 62.4509 32.998 63.002C32.998 63.5531 32.5511 64 32 64Z" fill="#283246"/>
<path d="M32 35.9983C29.7954 35.9983 28.0018 34.2046 28.0018 32C28.0018 29.7954 29.7954 28.0018 32 28.0018C34.2046 28.0018 35.9983 29.7954 35.9983 32C35.9983 34.2046 34.2046 35.9983 32 35.9983ZM32 29.9979C30.896 29.9979 29.9978 30.896 29.9978 32C29.9978 33.104 30.8959 34.0021 32 34.0021C33.1041 34.0021 34.0021 33.104 34.0021 32C34.0021 30.896 33.104 29.9979 32 29.9979Z" fill="#283246"/>
</svg>
